<svg xmlns="http://www.w3.org/2000/svg" xmlns:xlink="http://www.w3.org/1999/xlink" width="110" zoomAndPan="magnify" viewBox="0 0 82.5 74.999997" height="100" preserveAspectRatio="xMidYMid meet" version="1.0"><defs><clipPath id="ad8ae77b3c"><path d="M 8.59375 1.039062 L 75.34375 1.039062 L 75.34375 74.539062 L 8.59375 74.539062 Z M 8.59375 1.039062 " clip-rule="nonzero"/></clipPath><clipPath id="21986f0dcf"><path d="M 8.59375 1.039062 L 75 1.039062 L 75 56 L 8.59375 56 Z M 8.59375 1.039062 " clip-rule="nonzero"/></clipPath><clipPath id="a8eec26c14"><path d="M 41 18 L 75.34375 18 L 75.34375 57 L 41 57 Z M 41 18 " clip-rule="nonzero"/></clipPath></defs><g clip-path="url(#ad8ae77b3c)"><path fill="#37474f" d="M 40.050781 1.710938 C 41.238281 1.046875 42.699219 1.046875 43.882812 1.710938 C 49.75 4.988281 67.394531 14.863281 73.261719 18.140625 C 74.449219 18.804688 75.179688 20.027344 75.179688 21.355469 C 75.179688 27.914062 75.179688 47.65625 75.179688 54.21875 C 75.179688 55.542969 74.449219 56.769531 73.261719 57.433594 C 67.398438 60.714844 49.75 70.585938 43.882812 73.863281 C 42.699219 74.527344 41.238281 74.527344 40.050781 73.863281 C 34.1875 70.585938 16.542969 60.714844 10.675781 57.433594 C 9.492188 56.769531 8.761719 55.546875 8.761719 54.21875 C 8.761719 47.660156 8.761719 27.917969 8.761719 21.359375 C 8.761719 20.03125 9.492188 18.804688 10.675781 18.140625 C 16.539062 14.863281 34.1875 4.988281 40.050781 1.710938 Z M 40.050781 1.710938 " fill-opacity="1" fill-rule="evenodd"/></g><g clip-path="url(#21986f0dcf)"><path fill="#546e7a" d="M 9.292969 55.910156 C 8.828125 55.289062 8.761719 54.699219 8.761719 53.90625 C 8.761719 47.386719 8.761719 27.757812 8.761719 21.234375 C 8.761719 19.914062 9.488281 18.695312 10.671875 18.035156 C 16.515625 14.777344 34.101562 4.960938 39.945312 1.699219 C 41.128906 1.039062 42.730469 1.054688 43.914062 1.714844 C 49.757812 4.972656 67.285156 14.703125 73.128906 17.964844 C 73.601562 18.230469 73.960938 18.546875 74.28125 18.96875 Z M 9.292969 55.910156 " fill-opacity="1" fill-rule="evenodd"/></g><path fill="#ffffff" d="M 41.96875 13.402344 C 55.476562 13.402344 66.4375 24.328125 66.4375 37.789062 C 66.4375 51.246094 55.476562 62.171875 41.96875 62.171875 C 28.464844 62.171875 17.5 51.246094 17.5 37.789062 C 17.5 24.328125 28.464844 13.402344 41.96875 13.402344 Z M 41.96875 25.59375 C 48.722656 25.59375 54.203125 31.058594 54.203125 37.789062 C 54.203125 44.515625 48.722656 49.980469 41.96875 49.980469 C 35.21875 49.980469 29.734375 44.515625 29.734375 37.789062 C 29.734375 31.058594 35.214844 25.59375 41.96875 25.59375 Z M 41.96875 25.59375 " fill-opacity="1" fill-rule="evenodd"/><g clip-path="url(#a8eec26c14)"><path fill="#455a64" d="M 74.277344 18.984375 C 75.179688 19.828125 75.164062 21.09375 75.164062 22.09375 C 75.164062 28.703125 75.105469 47.503906 75.179688 54.113281 C 75.183594 54.800781 74.957031 55.527344 74.613281 56.074219 L 41.257812 37.789062 Z M 74.277344 18.984375 " fill-opacity="1" fill-rule="evenodd"/></g><path fill="#ffffff" d="M 59.449219 30.820312 L 61.195312 30.820312 L 61.195312 44.753906 L 59.449219 44.753906 Z M 64.691406 30.820312 L 66.4375 30.820312 L 66.4375 44.753906 L 64.691406 44.753906 Z M 64.691406 30.820312 " fill-opacity="1" fill-rule="evenodd"/><path fill="#ffffff" d="M 55.953125 39.527344 L 69.933594 39.527344 L 69.933594 41.269531 L 55.953125 41.269531 Z M 55.953125 34.304688 L 69.933594 34.304688 L 69.933594 36.046875 L 55.953125 36.046875 Z M 55.953125 34.304688 " fill-opacity="1" fill-rule="evenodd"/></svg>