<svg xmlns="http://www.w3.org/2000/svg" xmlns:xlink="http://www.w3.org/1999/xlink" width="110" zoomAndPan="magnify" viewBox="0 0 82.5 74.999997" height="100" preserveAspectRatio="xMidYMid meet" version="1.0"><defs><clipPath id="ae4c9dfa73"><path d="M 15.730469 15 L 66.730469 15 L 66.730469 73.738281 L 15.730469 73.738281 Z M 15.730469 15 " clip-rule="nonzero"/></clipPath><clipPath id="dd148e3e05"><path d="M 20 1.738281 L 30 1.738281 L 30 12 L 20 12 Z M 20 1.738281 " clip-rule="nonzero"/></clipPath><clipPath id="3f0fef0291"><path d="M 31 1.738281 L 41 1.738281 L 41 12 L 31 12 Z M 31 1.738281 " clip-rule="nonzero"/></clipPath><clipPath id="adef845410"><path d="M 41 1.738281 L 53 1.738281 L 53 12 L 41 12 Z M 41 1.738281 " clip-rule="nonzero"/></clipPath><clipPath id="8de1a81c2a"><path d="M 54 1.738281 L 63 1.738281 L 63 12 L 54 12 Z M 54 1.738281 " clip-rule="nonzero"/></clipPath></defs><g clip-path="url(#ae4c9dfa73)"><path fill="#e44d26" d="M 66.71875 15.886719 L 62.074219 67.945312 L 41.207031 73.734375 L 20.398438 67.953125 L 15.761719 15.886719 Z M 66.71875 15.886719 " fill-opacity="1" fill-rule="nonzero"/></g><path fill="#f16529" d="M 41.242188 69.308594 L 58.101562 64.628906 L 62.070312 20.144531 L 41.242188 20.144531 Z M 41.242188 69.308594 " fill-opacity="1" fill-rule="nonzero"/><path fill="#ebebeb" d="M 32.214844 32.914062 L 41.242188 32.914062 L 41.242188 26.527344 L 25.246094 26.527344 L 25.398438 28.242188 L 26.964844 45.839844 L 41.242188 45.839844 L 41.242188 39.453125 L 32.800781 39.453125 Z M 32.214844 32.914062 " fill-opacity="1" fill-rule="nonzero"/><path fill="#ebebeb" d="M 33.652344 49.03125 L 27.25 49.03125 L 28.144531 59.058594 L 41.210938 62.691406 L 41.242188 62.683594 L 41.242188 56.039062 L 41.210938 56.046875 L 34.109375 54.125 Z M 33.652344 49.03125 " fill-opacity="1" fill-rule="nonzero"/><g clip-path="url(#dd148e3e05)"><path fill="#000000" d="M 20.503906 1.738281 L 23.746094 1.738281 L 23.746094 4.941406 L 26.710938 4.941406 L 26.710938 1.738281 L 29.953125 1.738281 L 29.953125 11.445312 L 26.710938 11.445312 L 26.710938 8.195312 L 23.746094 8.195312 L 23.746094 11.445312 L 20.503906 11.445312 Z M 20.503906 1.738281 " fill-opacity="1" fill-rule="nonzero"/></g><g clip-path="url(#3f0fef0291)"><path fill="#000000" d="M 34.214844 4.957031 L 31.363281 4.957031 L 31.363281 1.738281 L 40.3125 1.738281 L 40.3125 4.957031 L 37.457031 4.957031 L 37.457031 11.445312 L 34.214844 11.445312 Z M 34.214844 4.957031 " fill-opacity="1" fill-rule="nonzero"/></g><g clip-path="url(#adef845410)"><path fill="#000000" d="M 41.734375 1.738281 L 45.113281 1.738281 L 47.191406 5.148438 L 49.269531 1.738281 L 52.652344 1.738281 L 52.652344 11.445312 L 49.425781 11.445312 L 49.425781 6.632812 L 47.191406 10.085938 L 47.136719 10.085938 L 44.90625 6.632812 L 44.90625 11.445312 L 41.734375 11.445312 Z M 41.734375 1.738281 " fill-opacity="1" fill-rule="nonzero"/></g><g clip-path="url(#8de1a81c2a)"><path fill="#000000" d="M 54.265625 1.738281 L 57.507812 1.738281 L 57.507812 8.238281 L 62.066406 8.238281 L 62.066406 11.445312 L 54.265625 11.445312 Z M 54.265625 1.738281 " fill-opacity="1" fill-rule="nonzero"/></g><path fill="#ffffff" d="M 41.21875 45.839844 L 49.074219 45.839844 L 48.332031 54.121094 L 41.21875 56.042969 L 41.21875 62.6875 L 54.296875 59.058594 L 54.390625 57.980469 L 55.890625 41.167969 L 56.046875 39.453125 L 41.21875 39.453125 Z M 41.21875 45.839844 " fill-opacity="1" fill-rule="nonzero"/><path fill="#ffffff" d="M 41.21875 32.898438 L 41.21875 32.914062 L 56.625 32.914062 L 56.753906 31.480469 L 57.046875 28.242188 L 57.199219 26.527344 L 41.21875 26.527344 Z M 41.21875 32.898438 " fill-opacity="1" fill-rule="nonzero"/></svg>