<svg xmlns="http://www.w3.org/2000/svg" xmlns:xlink="http://www.w3.org/1999/xlink" width="110" zoomAndPan="magnify" viewBox="0 0 82.5 74.999997" height="100" preserveAspectRatio="xMidYMid meet" version="1.0"><defs><clipPath id="a343635eb4"><path d="M 7.5 0.527344 L 75 0.527344 L 75 74.773438 L 7.5 74.773438 Z M 7.5 0.527344 " clip-rule="nonzero"/></clipPath></defs><g clip-path="url(#a343635eb4)"><path fill="#8cc84b" d="M 38.136719 1.515625 C 39.988281 0.464844 42.351562 0.460938 44.160156 1.515625 L 71.839844 17.089844 C 73.570312 18.058594 74.730469 19.988281 74.714844 21.976562 L 74.714844 53.203125 C 74.726562 55.28125 73.453125 57.246094 71.628906 58.199219 L 44.097656 73.703125 C 43.625 73.964844 43.128906 74.15625 42.605469 74.28125 C 42.082031 74.410156 41.550781 74.464844 41.015625 74.453125 C 40.476562 74.4375 39.949219 74.351562 39.4375 74.195312 C 38.921875 74.039062 38.4375 73.820312 37.980469 73.535156 L 29.71875 68.769531 C 29.15625 68.433594 28.523438 68.167969 28.125 67.625 C 28.476562 67.152344 29.101562 67.09375 29.613281 66.882812 C 30.761719 66.519531 31.8125 65.960938 32.871094 65.367188 C 33.136719 65.183594 33.464844 65.25 33.71875 65.417969 L 40.761719 69.484375 C 41.265625 69.773438 41.777344 69.390625 42.207031 69.148438 L 69.242188 53.921875 C 69.574219 53.761719 69.757812 53.410156 69.730469 53.042969 L 69.730469 22.117188 C 69.769531 21.699219 69.53125 21.320312 69.152344 21.152344 L 41.691406 5.71875 C 41.527344 5.605469 41.347656 5.550781 41.152344 5.546875 C 40.953125 5.546875 40.773438 5.605469 40.613281 5.714844 L 13.191406 21.183594 C 12.820312 21.351562 12.5625 21.726562 12.609375 22.140625 L 12.609375 53.066406 C 12.578125 53.433594 12.773438 53.777344 13.109375 53.9375 L 20.4375 58.066406 C 21.8125 58.804688 23.503906 59.222656 25.019531 58.675781 C 25.351562 58.550781 25.65625 58.382812 25.933594 58.164062 C 26.214844 57.945312 26.453125 57.691406 26.65625 57.398438 C 26.855469 57.109375 27.007812 56.792969 27.113281 56.457031 C 27.21875 56.117188 27.269531 55.773438 27.269531 55.417969 L 27.277344 24.675781 C 27.242188 24.222656 27.675781 23.84375 28.117188 23.890625 L 31.640625 23.890625 C 32.101562 23.878906 32.46875 24.371094 32.402344 24.828125 L 32.398438 55.761719 C 32.398438 58.511719 31.269531 61.5 28.722656 62.847656 C 25.582031 64.46875 21.703125 64.128906 18.605469 62.570312 L 10.722656 58.222656 C 8.871094 57.296875 7.625 55.296875 7.636719 53.226562 L 7.636719 22 C 7.640625 21.492188 7.710938 20.992188 7.847656 20.503906 C 7.988281 20.015625 8.1875 19.554688 8.445312 19.117188 C 8.707031 18.683594 9.023438 18.289062 9.390625 17.9375 C 9.753906 17.585938 10.164062 17.289062 10.609375 17.046875 Z M 46.117188 23.160156 C 50.117188 22.929688 54.402344 23.007812 58.003906 24.976562 C 60.792969 26.484375 62.339844 29.648438 62.390625 32.742188 C 62.3125 33.160156 61.875 33.390625 61.476562 33.359375 C 60.316406 33.359375 59.15625 33.375 57.992188 33.355469 C 57.496094 33.371094 57.210938 32.917969 57.148438 32.484375 C 56.816406 31.003906 56.007812 29.539062 54.613281 28.824219 C 52.472656 27.753906 49.988281 27.808594 47.652344 27.832031 C 45.945312 27.921875 44.113281 28.070312 42.667969 29.066406 C 41.554688 29.828125 41.222656 31.378906 41.617188 32.589844 C 41.988281 33.472656 43.015625 33.757812 43.851562 34.023438 C 48.675781 35.28125 53.789062 35.179688 58.523438 36.8125 C 60.480469 37.488281 62.398438 38.804688 63.070312 40.851562 C 63.945312 43.59375 63.5625 46.875 61.609375 49.074219 C 60.023438 50.890625 57.714844 51.851562 55.410156 52.410156 C 52.34375 53.09375 49.164062 53.109375 46.050781 52.804688 C 43.125 52.472656 40.078125 51.703125 37.820312 49.714844 C 35.886719 48.039062 34.945312 45.429688 35.039062 42.914062 C 35.0625 42.488281 35.488281 42.191406 35.898438 42.226562 L 39.371094 42.226562 C 39.839844 42.195312 40.183594 42.597656 40.207031 43.035156 C 40.421875 44.425781 40.953125 45.925781 42.1875 46.738281 C 44.5625 48.269531 47.546875 48.164062 50.265625 48.207031 C 52.523438 48.105469 55.054688 48.078125 56.894531 46.585938 C 57.867188 45.738281 58.152344 44.320312 57.890625 43.097656 C 57.605469 42.066406 56.5 41.589844 55.574219 41.25 C 50.8125 39.746094 45.644531 40.289062 40.929688 38.589844 C 39.011719 37.914062 37.160156 36.636719 36.425781 34.671875 C 35.402344 31.898438 35.871094 28.457031 38.035156 26.328125 C 40.117188 24.210938 43.179688 23.394531 46.074219 23.105469 Z M 46.117188 23.160156 " fill-opacity="1" fill-rule="nonzero"/></g></svg>