<svg xmlns="http://www.w3.org/2000/svg" xmlns:xlink="http://www.w3.org/1999/xlink" width="80" zoomAndPan="magnify" viewBox="0 0 60 30.000001" height="40" preserveAspectRatio="xMidYMid meet" version="1.0"><defs><g/><clipPath id="f47ee23f99"><path d="M 1 0 L 30.726562 0 L 30.726562 29.03125 L 1 29.03125 Z M 1 0 " clip-rule="nonzero"/></clipPath><clipPath id="3d6f71c026"><path d="M 50 15 L 52 15 L 52 21 L 50 21 Z M 50 15 " clip-rule="nonzero"/></clipPath><clipPath id="ad728e6715"><path d="M 58.199219 14.511719 L 59 23.1875 L 51.050781 23.921875 L 50.25 15.25 Z M 58.199219 14.511719 " clip-rule="nonzero"/></clipPath><clipPath id="4211748e1c"><path d="M 58.199219 14.511719 L 59 23.1875 L 51.050781 23.921875 L 50.25 15.25 Z M 58.199219 14.511719 " clip-rule="nonzero"/></clipPath><clipPath id="951faa7d3d"><path d="M 53 17 L 57 17 L 57 22 L 53 22 Z M 53 17 " clip-rule="nonzero"/></clipPath><clipPath id="9f4c4148b6"><path d="M 58.199219 14.511719 L 59 23.1875 L 51.050781 23.921875 L 50.25 15.25 Z M 58.199219 14.511719 " clip-rule="nonzero"/></clipPath><clipPath id="8b75f1671c"><path d="M 58.199219 14.511719 L 59 23.1875 L 51.050781 23.921875 L 50.25 15.25 Z M 58.199219 14.511719 " clip-rule="nonzero"/></clipPath><clipPath id="c2d1e7d8ae"><path d="M 53 21 L 59 21 L 59 24 L 53 24 Z M 53 21 " clip-rule="nonzero"/></clipPath><clipPath id="42a5537c0e"><path d="M 58.199219 14.511719 L 59 23.1875 L 51.050781 23.921875 L 50.25 15.25 Z M 58.199219 14.511719 " clip-rule="nonzero"/></clipPath><clipPath id="c514920d8b"><path d="M 58.199219 14.511719 L 59 23.1875 L 51.050781 23.921875 L 50.25 15.25 Z M 58.199219 14.511719 " clip-rule="nonzero"/></clipPath><clipPath id="88ebda9a43"><path d="M 55 17 L 56 17 L 56 18 L 55 18 Z M 55 17 " clip-rule="nonzero"/></clipPath><clipPath id="aecf732a9b"><path d="M 58.199219 14.511719 L 59 23.1875 L 51.050781 23.921875 L 50.25 15.25 Z M 58.199219 14.511719 " clip-rule="nonzero"/></clipPath><clipPath id="e9d5bab90f"><path d="M 58.199219 14.511719 L 59 23.1875 L 51.050781 23.921875 L 50.25 15.25 Z M 58.199219 14.511719 " clip-rule="nonzero"/></clipPath><clipPath id="4f83f50107"><path d="M 55 22 L 56 22 L 56 23 L 55 23 Z M 55 22 " clip-rule="nonzero"/></clipPath><clipPath id="b15296cc55"><path d="M 58.199219 14.511719 L 59 23.1875 L 51.050781 23.921875 L 50.25 15.25 Z M 58.199219 14.511719 " clip-rule="nonzero"/></clipPath><clipPath id="69a78db11c"><path d="M 58.199219 14.511719 L 59 23.1875 L 51.050781 23.921875 L 50.25 15.25 Z M 58.199219 14.511719 " clip-rule="nonzero"/></clipPath></defs><g clip-path="url(#f47ee23f99)"><path fill="#005bff" d="M 30.582031 7.75 C 30.519531 7.664062 30.425781 7.617188 30.316406 7.617188 L 16.691406 7.617188 C 16.605469 7.617188 16.535156 7.640625 16.480469 7.6875 C 15.726562 7.03125 14.859375 6.5 13.902344 6.089844 C 13.894531 6.082031 13.878906 6.082031 13.871094 6.074219 L 30.222656 6.074219 C 30.316406 6.074219 30.402344 6.035156 30.472656 5.964844 C 30.542969 5.886719 30.582031 5.800781 30.582031 5.707031 C 30.582031 5.605469 30.542969 5.519531 30.472656 5.449219 C 30.402344 5.371094 30.316406 5.339844 30.222656 5.339844 L 10.75 5.339844 C 10.71875 5.339844 10.683594 5.347656 10.652344 5.355469 C 10.480469 5.347656 10.308594 5.339844 10.136719 5.339844 L 4.554688 5.339844 C 4.441406 5.339844 4.347656 5.378906 4.277344 5.457031 C 4.207031 5.535156 4.167969 5.636719 4.167969 5.746094 L 4.167969 24.167969 C 4.167969 24.261719 4.199219 24.355469 4.261719 24.433594 C 4.324219 24.511719 4.410156 24.550781 4.53125 24.550781 C 4.789062 24.550781 4.914062 24.425781 4.914062 24.167969 L 4.914062 6.082031 L 6.589844 6.082031 L 6.589844 24.113281 C 6.589844 24.222656 6.628906 24.324219 6.699219 24.402344 C 6.769531 24.480469 6.863281 24.519531 6.976562 24.519531 L 10.152344 24.496094 C 11.472656 24.480469 12.730469 24.222656 13.902344 23.722656 C 15.082031 23.222656 16.101562 22.546875 16.976562 21.679688 C 17.847656 20.816406 18.539062 19.800781 19.042969 18.640625 C 19.554688 17.480469 19.804688 16.230469 19.804688 14.90625 C 19.804688 13.597656 19.554688 12.347656 19.042969 11.1875 C 18.585938 10.136719 17.980469 9.207031 17.226562 8.402344 L 23.066406 8.402344 L 23.066406 24.183594 C 23.066406 24.292969 23.105469 24.386719 23.1875 24.449219 C 23.265625 24.511719 23.351562 24.542969 23.445312 24.542969 C 23.539062 24.542969 23.625 24.503906 23.703125 24.433594 C 23.785156 24.363281 23.824219 24.277344 23.824219 24.183594 L 23.824219 8.402344 L 30.324219 8.402344 C 30.417969 8.402344 30.503906 8.363281 30.574219 8.289062 C 30.648438 8.210938 30.6875 8.117188 30.6875 8.023438 C 30.679688 7.929688 30.648438 7.835938 30.582031 7.75 Z M 19.058594 14.90625 C 19.058594 16.121094 18.824219 17.269531 18.359375 18.335938 C 17.886719 19.402344 17.25 20.332031 16.449219 21.128906 C 15.636719 21.921875 14.695312 22.554688 13.617188 23.015625 C 12.53125 23.480469 11.386719 23.714844 10.152344 23.738281 C 9.679688 23.753906 9.214844 23.761719 8.742188 23.761719 C 8.273438 23.761719 7.808594 23.761719 7.335938 23.761719 L 7.335938 6.074219 C 7.808594 6.074219 8.273438 6.074219 8.742188 6.058594 C 9.214844 6.050781 9.679688 6.042969 10.152344 6.042969 C 10.332031 6.042969 10.511719 6.050781 10.683594 6.058594 C 10.710938 6.066406 10.734375 6.066406 10.757812 6.066406 L 10.789062 6.066406 C 11.777344 6.136719 12.730469 6.355469 13.625 6.734375 C 14.71875 7.203125 15.660156 7.828125 16.457031 8.621094 C 17.257812 9.417969 17.886719 10.351562 18.359375 11.4375 C 18.824219 12.535156 19.058594 13.683594 19.058594 14.90625 Z M 15.441406 9.644531 C 16.109375 10.304688 16.644531 11.101562 17.039062 12.011719 C 17.429688 12.910156 17.628906 13.882812 17.628906 14.90625 C 17.628906 15.917969 17.429688 16.886719 17.046875 17.765625 C 16.652344 18.664062 16.109375 19.449219 15.433594 20.113281 C 14.757812 20.777344 13.949219 21.3125 13.035156 21.703125 C 12.132812 22.09375 11.15625 22.296875 10.121094 22.3125 L 10.089844 22.3125 C 9.648438 22.328125 9.199219 22.335938 8.757812 22.335938 L 8.757812 7.484375 C 9.222656 7.476562 9.6875 7.46875 10.136719 7.46875 C 10.253906 7.46875 10.378906 7.46875 10.527344 7.476562 C 10.589844 7.484375 10.652344 7.492188 10.71875 7.492188 C 11.535156 7.554688 12.3125 7.742188 13.042969 8.054688 C 13.972656 8.441406 14.773438 8.980469 15.441406 9.644531 Z M 5.644531 3.914062 C 8.265625 1.488281 11.777344 0 15.644531 0 C 19.515625 0 23.027344 1.488281 25.648438 3.914062 L 10.75 3.914062 C 10.691406 3.914062 10.636719 3.914062 10.574219 3.921875 C 10.425781 3.914062 10.285156 3.914062 10.144531 3.914062 Z M 2.730469 21.359375 C 1.628906 19.320312 1.007812 16.996094 1.007812 14.515625 C 1.007812 12.035156 1.628906 9.714844 2.730469 7.671875 Z M 29.507812 9.824219 C 30.011719 11.296875 30.285156 12.871094 30.285156 14.515625 C 30.285156 22.53125 23.726562 29.03125 15.644531 29.03125 C 12.210938 29.03125 9.042969 27.855469 6.542969 25.890625 C 6.675781 25.921875 6.816406 25.9375 6.964844 25.9375 L 10.152344 25.914062 L 10.160156 25.914062 C 11.660156 25.898438 13.105469 25.601562 14.453125 25.03125 C 15.796875 24.472656 16.984375 23.675781 17.980469 22.6875 C 18.980469 21.695312 19.773438 20.527344 20.355469 19.210938 C 20.9375 17.875 21.234375 16.425781 21.234375 14.914062 C 21.234375 13.410156 20.9375 11.976562 20.355469 10.625 C 20.238281 10.351562 20.105469 10.082031 19.96875 9.824219 L 21.636719 9.824219 L 21.636719 24.183594 C 21.636719 24.714844 21.863281 25.210938 22.273438 25.539062 C 22.613281 25.8125 23.011719 25.960938 23.445312 25.960938 C 23.902344 25.960938 24.332031 25.789062 24.679688 25.46875 C 25.050781 25.125 25.253906 24.667969 25.253906 24.175781 L 25.253906 9.824219 Z M 29.507812 9.824219 " fill-opacity="1" fill-rule="nonzero"/></g><g fill="#2e2e2e" fill-opacity="1"><g transform="translate(32.903225, 16.57895)"><g><path d="M 0.355469 -5.777344 L 0.355469 0 L 1.566406 0 L 1.566406 -2.375 L 3.40625 -2.375 L 3.40625 -3.398438 L 1.566406 -3.398438 L 1.566406 -4.734375 L 3.871094 -4.734375 L 3.871094 -5.777344 Z M 0.355469 -5.777344 "/></g></g></g><g fill="#2e2e2e" fill-opacity="1"><g transform="translate(36.896872, 16.57895)"><g><path d="M 2.492188 -5.90625 C 0.957031 -5.90625 0.265625 -4.761719 0.265625 -2.886719 C 0.265625 -1.015625 0.957031 0.132812 2.492188 0.132812 C 4.027344 0.132812 4.710938 -1.015625 4.710938 -2.886719 C 4.710938 -4.761719 4.027344 -5.90625 2.492188 -5.90625 Z M 2.492188 -4.867188 C 3.226562 -4.867188 3.5 -4.117188 3.5 -2.886719 C 3.5 -1.660156 3.226562 -0.90625 2.492188 -0.90625 C 1.757812 -0.90625 1.484375 -1.660156 1.484375 -2.886719 C 1.484375 -4.117188 1.757812 -4.867188 2.492188 -4.867188 Z M 2.492188 -4.867188 "/></g></g></g><g fill="#2e2e2e" fill-opacity="1"><g transform="translate(41.864169, 16.57895)"><g><path d="M 1.558594 -4.734375 L 2.253906 -4.734375 C 2.730469 -4.734375 3.011719 -4.480469 3.011719 -4 C 3.011719 -3.523438 2.730469 -3.21875 2.253906 -3.21875 L 1.558594 -3.21875 Z M 1.558594 -2.195312 L 2.492188 -2.195312 C 2.773438 -2.195312 3.011719 -1.964844 3.011719 -1.683594 L 3.011719 -0.371094 C 3.011719 -0.214844 3.085938 -0.03125 3.21875 0 L 4.449219 0 C 4.289062 -0.0664062 4.234375 -0.207031 4.234375 -0.371094 L 4.234375 -1.59375 C 4.234375 -2.054688 4.011719 -2.46875 3.640625 -2.707031 C 4.027344 -2.980469 4.234375 -3.433594 4.234375 -4.09375 C 4.234375 -5.230469 3.582031 -5.777344 2.492188 -5.777344 L 0.347656 -5.777344 L 0.347656 0 L 1.558594 0 Z M 1.558594 -2.195312 "/></g></g></g><g fill="#2e2e2e" fill-opacity="1"><g transform="translate(32.903225, 27.580649)"><g><path d="M 0.0820312 -5.777344 L 0.0820312 -5.171875 L 1.5 -5.171875 L 1.5 0 L 2.195312 0 L 2.195312 -5.171875 L 3.605469 -5.171875 L 3.605469 -5.777344 Z M 0.0820312 -5.777344 "/></g></g></g><g fill="#2e2e2e" fill-opacity="1"><g transform="translate(36.566813, 27.580649)"><g><path d="M 0.503906 -5.777344 L 0.503906 0 L 3.664062 0 L 3.664062 -0.601562 L 1.195312 -0.601562 L 1.195312 -2.589844 L 3.210938 -2.589844 L 3.210938 -3.183594 L 1.195312 -3.183594 L 1.195312 -5.171875 L 3.664062 -5.171875 L 3.664062 -5.777344 Z M 0.503906 -5.777344 "/></g></g></g><g fill="#2e2e2e" fill-opacity="1"><g transform="translate(40.362423, 27.580649)"><g><path d="M 2.476562 -5.90625 C 1.03125 -5.90625 0.421875 -4.753906 0.421875 -2.886719 C 0.421875 -1.023438 1.03125 0.132812 2.476562 0.132812 C 3.574219 0.132812 4.183594 -0.535156 4.40625 -1.648438 L 3.722656 -1.648438 C 3.546875 -0.898438 3.160156 -0.460938 2.476562 -0.460938 C 1.476562 -0.460938 1.113281 -1.378906 1.113281 -2.886719 C 1.113281 -4.398438 1.476562 -5.3125 2.476562 -5.3125 C 3.160156 -5.3125 3.546875 -4.875 3.722656 -4.125 L 4.40625 -4.125 C 4.183594 -5.238281 3.574219 -5.90625 2.476562 -5.90625 Z M 2.476562 -5.90625 "/></g></g></g><g fill="#2e2e2e" fill-opacity="1"><g transform="translate(45.082182, 27.580649)"><g><path d="M 0.503906 -5.777344 L 0.503906 0 L 1.195312 0 L 1.195312 -2.589844 L 3.449219 -2.589844 L 3.449219 0 L 4.140625 0 L 4.140625 -5.777344 L 3.449219 -5.777344 L 3.449219 -3.183594 L 1.195312 -3.183594 L 1.195312 -5.777344 Z M 0.503906 -5.777344 "/></g></g></g><g fill="#2e2e2e" fill-opacity="1"><g transform="translate(32.903225, 5.577252)"><g><path d="M 0.503906 -5.777344 L 0.503906 0 L 1.195312 0 L 1.195312 -4.480469 L 2.605469 0 L 2.996094 0 L 4.398438 -4.488281 L 4.398438 0 L 5.097656 0 L 5.097656 -5.777344 L 4.183594 -5.777344 L 2.804688 -1.289062 L 1.417969 -5.777344 Z M 0.503906 -5.777344 "/></g></g></g><g fill="#2e2e2e" fill-opacity="1"><g transform="translate(38.481127, 5.577252)"><g><path d="M 1.625 -5.777344 L 0.0820312 0 L 0.785156 0 L 1.195312 -1.585938 L 2.945312 -1.585938 L 3.359375 0 L 4.066406 0 L 2.515625 -5.777344 Z M 2.789062 -2.1875 L 1.351562 -2.1875 L 2.070312 -4.960938 Z M 2.789062 -2.1875 "/></g></g></g><g fill="#2e2e2e" fill-opacity="1"><g transform="translate(42.606796, 5.577252)"><g><path d="M 2.246094 -5.90625 C 1.171875 -5.90625 0.503906 -5.339844 0.503906 -4.375 C 0.503906 -3.789062 0.734375 -3.292969 1.4375 -2.929688 L 2.894531 -2.179688 C 3.300781 -1.964844 3.390625 -1.707031 3.390625 -1.351562 C 3.390625 -0.71875 2.945312 -0.460938 2.261719 -0.460938 C 1.550781 -0.460938 1.113281 -0.75 1.113281 -1.410156 L 0.421875 -1.410156 C 0.421875 -0.40625 1.054688 0.132812 2.246094 0.132812 C 3.433594 0.132812 4.074219 -0.394531 4.074219 -1.402344 C 4.074219 -2.003906 3.878906 -2.425781 3.277344 -2.738281 L 1.742188 -3.53125 C 1.3125 -3.761719 1.195312 -4.066406 1.195312 -4.429688 C 1.195312 -5 1.601562 -5.3125 2.21875 -5.3125 C 2.894531 -5.3125 3.316406 -4.96875 3.316406 -4.363281 L 4 -4.363281 C 4 -5.339844 3.316406 -5.90625 2.246094 -5.90625 Z M 2.246094 -5.90625 "/></g></g></g><g fill="#2e2e2e" fill-opacity="1"><g transform="translate(47.079016, 5.577252)"><g><path d="M 0.0820312 -5.777344 L 0.0820312 -5.171875 L 1.5 -5.171875 L 1.5 0 L 2.195312 0 L 2.195312 -5.171875 L 3.605469 -5.171875 L 3.605469 -5.777344 Z M 0.0820312 -5.777344 "/></g></g></g><g fill="#2e2e2e" fill-opacity="1"><g transform="translate(50.742605, 5.577252)"><g><path d="M 0.503906 -5.777344 L 0.503906 0 L 3.664062 0 L 3.664062 -0.601562 L 1.195312 -0.601562 L 1.195312 -2.589844 L 3.210938 -2.589844 L 3.210938 -3.183594 L 1.195312 -3.183594 L 1.195312 -5.171875 L 3.664062 -5.171875 L 3.664062 -5.777344 Z M 0.503906 -5.777344 "/></g></g></g><g fill="#2e2e2e" fill-opacity="1"><g transform="translate(54.538214, 5.577252)"><g><path d="M 1.195312 -5.171875 L 2.160156 -5.171875 C 2.90625 -5.171875 3.339844 -4.746094 3.339844 -3.992188 C 3.339844 -3.242188 2.90625 -2.804688 2.160156 -2.804688 L 1.195312 -2.804688 Z M 1.195312 -2.210938 L 2.542969 -2.210938 C 2.96875 -2.210938 3.339844 -1.847656 3.339844 -1.417969 L 3.339844 -0.3125 C 3.339844 -0.199219 3.390625 -0.0429688 3.480469 0 L 4.199219 0 C 4.085938 -0.0507812 4.035156 -0.191406 4.035156 -0.3125 L 4.035156 -1.304688 C 4.035156 -1.890625 3.746094 -2.34375 3.226562 -2.53125 C 3.746094 -2.78125 4.035156 -3.285156 4.035156 -4.042969 C 4.035156 -5.171875 3.367188 -5.777344 2.277344 -5.777344 L 0.503906 -5.777344 L 0.503906 0 L 1.195312 0 Z M 1.195312 -2.210938 "/></g></g></g><g clip-path="url(#3d6f71c026)"><g clip-path="url(#ad728e6715)"><g clip-path="url(#4211748e1c)"><path fill="#005bff" d="M 51.089844 15.398438 C 51.113281 15.402344 51.132812 15.40625 51.140625 15.371094 C 51.148438 15.335938 51.167969 15.335938 51.199219 15.359375 C 51.210938 15.367188 51.226562 15.375 51.238281 15.386719 C 51.25 15.398438 51.261719 15.410156 51.273438 15.421875 C 51.308594 15.402344 51.328125 15.367188 51.34375 15.328125 C 51.34375 15.324219 51.34375 15.316406 51.34375 15.3125 C 51.371094 15.269531 51.390625 15.222656 51.421875 15.179688 C 51.449219 15.144531 51.480469 15.148438 51.515625 15.175781 C 51.527344 15.1875 51.539062 15.191406 51.558594 15.203125 C 51.546875 15.207031 51.539062 15.207031 51.535156 15.210938 C 51.53125 15.210938 51.523438 15.21875 51.523438 15.222656 C 51.523438 15.226562 51.527344 15.234375 51.535156 15.234375 C 51.578125 15.253906 51.578125 15.253906 51.601562 15.28125 C 51.601562 15.273438 51.601562 15.265625 51.605469 15.257812 C 51.609375 15.246094 51.617188 15.234375 51.621094 15.21875 C 51.628906 15.230469 51.644531 15.238281 51.644531 15.25 C 51.65625 15.351562 51.667969 15.449219 51.675781 15.550781 C 51.679688 15.621094 51.683594 15.691406 51.6875 15.765625 C 51.6875 15.777344 51.683594 15.792969 51.675781 15.808594 C 51.660156 15.832031 51.640625 15.835938 51.625 15.800781 C 51.613281 15.8125 51.609375 15.824219 51.597656 15.835938 C 51.628906 15.84375 51.652344 15.847656 51.671875 15.851562 C 51.675781 15.886719 51.683594 15.933594 51.683594 15.980469 C 51.683594 16 51.667969 16.015625 51.660156 16.03125 C 51.65625 16.03125 51.652344 16.03125 51.648438 16.03125 C 51.660156 16.046875 51.675781 16.0625 51.6875 16.078125 C 51.6875 16.082031 51.691406 16.089844 51.691406 16.09375 C 51.679688 16.128906 51.679688 16.160156 51.683594 16.195312 C 51.6875 16.214844 51.691406 16.238281 51.683594 16.257812 C 51.664062 16.304688 51.683594 16.355469 51.675781 16.402344 C 51.667969 16.476562 51.660156 16.550781 51.652344 16.625 C 51.648438 16.648438 51.648438 16.675781 51.640625 16.699219 C 51.628906 16.773438 51.617188 16.847656 51.605469 16.917969 C 51.597656 16.960938 51.59375 17.003906 51.585938 17.046875 C 51.582031 17.058594 51.578125 17.070312 51.574219 17.082031 C 51.570312 17.105469 51.566406 17.128906 51.5625 17.148438 C 51.5625 17.160156 51.5625 17.171875 51.558594 17.179688 C 51.542969 17.25 51.523438 17.316406 51.507812 17.382812 C 51.496094 17.425781 51.492188 17.46875 51.484375 17.511719 C 51.464844 17.597656 51.445312 17.683594 51.425781 17.769531 C 51.398438 17.882812 51.378906 17.992188 51.351562 18.105469 C 51.339844 18.160156 51.324219 18.214844 51.3125 18.269531 C 51.304688 18.3125 51.304688 18.355469 51.292969 18.394531 C 51.28125 18.441406 51.265625 18.488281 51.246094 18.542969 C 51.25 18.554688 51.257812 18.574219 51.253906 18.59375 C 51.242188 18.671875 51.222656 18.746094 51.207031 18.824219 C 51.191406 18.914062 51.191406 19.011719 51.167969 19.101562 C 51.136719 19.214844 51.144531 19.332031 51.105469 19.445312 C 51.097656 19.464844 51.09375 19.484375 51.089844 19.5 C 51.078125 19.503906 51.054688 19.503906 51.054688 19.507812 C 51.046875 19.527344 51.039062 19.558594 51.046875 19.566406 C 51.089844 19.605469 51.058594 19.632812 51.042969 19.664062 C 51.03125 19.679688 51.027344 19.699219 51.019531 19.714844 C 51.003906 19.757812 50.984375 19.800781 50.964844 19.847656 C 50.953125 19.886719 50.953125 19.929688 50.917969 19.960938 C 50.898438 19.976562 50.882812 19.996094 50.863281 20.011719 C 50.851562 20.019531 50.832031 20.019531 50.824219 20.015625 C 50.8125 20.011719 50.808594 19.992188 50.8125 19.980469 C 50.820312 19.949219 50.8125 19.9375 50.777344 19.933594 C 50.75 19.929688 50.730469 19.890625 50.742188 19.859375 C 50.753906 19.824219 50.742188 19.796875 50.722656 19.769531 C 50.714844 19.777344 50.714844 19.777344 50.710938 19.777344 C 50.707031 19.792969 50.703125 19.804688 50.699219 19.816406 C 50.691406 19.804688 50.679688 19.792969 50.675781 19.78125 C 50.671875 19.757812 50.671875 19.730469 50.667969 19.699219 C 50.714844 19.730469 50.742188 19.707031 50.769531 19.675781 C 50.742188 19.660156 50.742188 19.636719 50.753906 19.609375 C 50.769531 19.574219 50.769531 19.535156 50.773438 19.5 C 50.777344 19.492188 50.769531 19.488281 50.765625 19.476562 C 50.746094 19.523438 50.753906 19.5625 50.71875 19.582031 C 50.714844 19.585938 50.714844 19.605469 50.71875 19.609375 C 50.742188 19.636719 50.714844 19.65625 50.707031 19.679688 C 50.707031 19.679688 50.6875 19.679688 50.683594 19.671875 C 50.667969 19.644531 50.652344 19.617188 50.675781 19.597656 C 50.675781 19.558594 50.679688 19.53125 50.679688 19.503906 C 50.675781 19.484375 50.667969 19.464844 50.667969 19.445312 C 50.667969 19.316406 50.667969 19.1875 50.667969 19.054688 C 50.667969 19.003906 50.664062 18.953125 50.664062 18.902344 C 50.664062 18.808594 50.664062 18.710938 50.664062 18.617188 C 50.667969 18.550781 50.671875 18.480469 50.675781 18.414062 C 50.679688 18.371094 50.683594 18.332031 50.6875 18.289062 C 50.691406 18.203125 50.695312 18.117188 50.703125 18.03125 C 50.710938 17.953125 50.722656 17.871094 50.730469 17.789062 C 50.738281 17.730469 50.742188 17.675781 50.75 17.617188 C 50.75 17.59375 50.757812 17.570312 50.765625 17.546875 C 50.765625 17.542969 50.769531 17.539062 50.769531 17.535156 C 50.75 17.46875 50.773438 17.40625 50.78125 17.339844 C 50.792969 17.265625 50.800781 17.1875 50.808594 17.109375 C 50.824219 17.019531 50.835938 16.929688 50.851562 16.839844 C 50.851562 16.824219 50.863281 16.8125 50.867188 16.796875 C 50.867188 16.769531 50.859375 16.746094 50.863281 16.71875 C 50.867188 16.679688 50.878906 16.644531 50.886719 16.605469 C 50.890625 16.5625 50.894531 16.515625 50.898438 16.46875 C 50.902344 16.417969 50.910156 16.367188 50.914062 16.316406 C 50.917969 16.214844 50.917969 16.109375 50.921875 16.007812 C 50.925781 15.992188 50.929688 15.976562 50.933594 15.957031 C 50.933594 15.933594 50.933594 15.90625 50.933594 15.882812 C 50.9375 15.847656 50.9375 15.8125 50.941406 15.777344 C 50.945312 15.730469 50.949219 15.6875 50.957031 15.640625 C 50.960938 15.605469 50.96875 15.574219 50.976562 15.539062 C 50.976562 15.539062 50.980469 15.535156 50.980469 15.535156 C 50.953125 15.488281 50.980469 15.441406 50.988281 15.394531 C 50.992188 15.355469 50.984375 15.316406 50.988281 15.273438 C 50.988281 15.25 51.003906 15.226562 51.015625 15.207031 C 51.027344 15.1875 51.039062 15.195312 51.050781 15.210938 C 51.0625 15.230469 51.078125 15.25 51.089844 15.269531 C 51.09375 15.273438 51.097656 15.28125 51.097656 15.289062 C 51.09375 15.324219 51.089844 15.359375 51.089844 15.398438 Z M 51.015625 16.453125 C 51.011719 16.46875 51.007812 16.484375 51.003906 16.496094 C 51 16.539062 50.996094 16.582031 50.992188 16.625 C 50.992188 16.632812 50.992188 16.644531 50.992188 16.652344 C 50.996094 16.6875 51.007812 16.71875 50.972656 16.742188 C 50.96875 16.746094 50.96875 16.761719 50.96875 16.773438 C 50.972656 16.796875 50.980469 16.808594 51.007812 16.792969 C 51.039062 16.773438 51.039062 16.746094 51.042969 16.722656 C 51.046875 16.65625 51.050781 16.59375 51.054688 16.527344 C 51.054688 16.523438 51.058594 16.519531 51.058594 16.515625 C 51.078125 16.464844 51.078125 16.464844 51.015625 16.453125 Z M 50.976562 16.8125 C 50.96875 16.84375 50.957031 16.871094 50.953125 16.898438 C 50.949219 16.90625 50.957031 16.914062 50.964844 16.917969 C 50.984375 16.921875 51.023438 16.886719 51.03125 16.863281 C 51.042969 16.832031 51.019531 16.832031 51 16.828125 C 50.996094 16.824219 50.988281 16.820312 50.976562 16.8125 Z M 51.015625 16.410156 C 51.015625 16.414062 51.015625 16.421875 51.011719 16.425781 C 51.027344 16.429688 51.039062 16.441406 51.050781 16.4375 C 51.058594 16.4375 51.070312 16.417969 51.070312 16.410156 C 51.070312 16.382812 51.066406 16.359375 51.0625 16.324219 C 51.046875 16.335938 51.03125 16.347656 51.023438 16.363281 C 51.019531 16.367188 51.035156 16.382812 51.042969 16.398438 C 51.035156 16.402344 51.023438 16.40625 51.015625 16.410156 Z M 50.828125 19.644531 C 50.824219 19.644531 50.820312 19.644531 50.816406 19.644531 C 50.8125 19.679688 50.804688 19.714844 50.800781 19.753906 C 50.839844 19.730469 50.847656 19.6875 50.828125 19.644531 Z M 51.074219 15.421875 C 51.074219 15.449219 51.074219 15.464844 51.074219 15.484375 C 51.074219 15.488281 51.082031 15.496094 51.082031 15.503906 C 51.09375 15.5 51.105469 15.496094 51.109375 15.492188 C 51.109375 15.464844 51.109375 15.441406 51.109375 15.414062 C 51.09375 15.417969 51.082031 15.421875 51.074219 15.421875 Z M 50.773438 19.421875 C 50.765625 19.394531 50.761719 19.371094 50.753906 19.347656 C 50.714844 19.382812 50.71875 19.402344 50.773438 19.421875 Z M 51.578125 16.097656 C 51.582031 16.105469 51.585938 16.113281 51.589844 16.121094 C 51.605469 16.113281 51.617188 16.109375 51.632812 16.101562 C 51.628906 16.089844 51.625 16.082031 51.621094 16.070312 C 51.605469 16.078125 51.589844 16.089844 51.578125 16.097656 Z M 51.203125 16.527344 C 51.242188 16.507812 51.246094 16.484375 51.21875 16.4375 C 51.210938 16.472656 51.207031 16.496094 51.203125 16.527344 Z M 51.183594 16.84375 C 51.191406 16.824219 51.199219 16.808594 51.207031 16.792969 C 51.207031 16.789062 51.207031 16.78125 51.203125 16.773438 C 51.203125 16.773438 51.191406 16.773438 51.191406 16.773438 C 51.171875 16.785156 51.167969 16.824219 51.183594 16.84375 Z M 51.261719 16.144531 C 51.257812 16.144531 51.253906 16.144531 51.246094 16.140625 C 51.230469 16.160156 51.210938 16.179688 51.253906 16.214844 C 51.257812 16.183594 51.261719 16.164062 51.261719 16.144531 Z M 50.976562 16.960938 C 50.96875 16.957031 50.960938 16.953125 50.953125 16.949219 C 50.949219 16.960938 50.941406 16.976562 50.945312 16.984375 C 50.945312 16.996094 50.960938 17.003906 50.96875 17.003906 C 50.976562 17.007812 50.988281 16.992188 50.988281 16.984375 C 50.988281 16.976562 50.980469 16.96875 50.976562 16.960938 Z M 51.078125 16.253906 C 51.0625 16.273438 51.046875 16.289062 51.03125 16.304688 L 51.046875 16.316406 C 51.058594 16.300781 51.074219 16.285156 51.085938 16.269531 C 51.085938 16.265625 51.085938 16.265625 51.078125 16.253906 Z M 51.175781 16.660156 C 51.21875 16.652344 51.234375 16.632812 51.222656 16.597656 C 51.207031 16.617188 51.195312 16.636719 51.175781 16.660156 Z M 50.792969 19.878906 C 50.792969 19.847656 50.792969 19.824219 50.792969 19.789062 C 50.761719 19.824219 50.765625 19.851562 50.792969 19.878906 Z M 50.792969 19.878906 " fill-opacity="1" fill-rule="nonzero"/></g></g></g><g clip-path="url(#951faa7d3d)"><g clip-path="url(#9f4c4148b6)"><g clip-path="url(#8b75f1671c)"><path fill="#005bff" d="M 53.839844 19.828125 C 53.789062 19.789062 53.824219 19.769531 53.84375 19.746094 C 53.898438 19.679688 53.953125 19.609375 54.007812 19.546875 C 54.050781 19.5 54.09375 19.457031 54.140625 19.414062 C 54.195312 19.359375 54.257812 19.308594 54.300781 19.246094 C 54.324219 19.214844 54.359375 19.1875 54.394531 19.164062 C 54.414062 19.152344 54.441406 19.140625 54.46875 19.167969 C 54.460938 19.171875 54.453125 19.175781 54.449219 19.179688 C 54.441406 19.183594 54.4375 19.191406 54.433594 19.199219 C 54.433594 19.199219 54.441406 19.210938 54.441406 19.207031 C 54.449219 19.207031 54.460938 19.203125 54.464844 19.199219 C 54.484375 19.179688 54.503906 19.164062 54.523438 19.144531 C 54.527344 19.140625 54.53125 19.132812 54.53125 19.128906 C 54.527344 19.125 54.523438 19.117188 54.515625 19.117188 C 54.503906 19.113281 54.488281 19.113281 54.472656 19.109375 C 54.464844 19.140625 54.453125 19.144531 54.425781 19.121094 C 54.445312 19.085938 54.480469 19.085938 54.511719 19.09375 C 54.527344 19.09375 54.539062 19.097656 54.554688 19.097656 C 54.554688 19.082031 54.558594 19.066406 54.5625 19.046875 C 54.535156 19.054688 54.515625 19.0625 54.484375 19.070312 C 54.496094 19.039062 54.496094 19.011719 54.527344 19.003906 C 54.53125 19.003906 54.535156 19 54.539062 18.996094 C 54.558594 18.96875 54.574219 18.941406 54.59375 18.914062 C 54.617188 18.878906 54.636719 18.84375 54.664062 18.8125 C 54.691406 18.785156 54.710938 18.738281 54.765625 18.738281 C 54.78125 18.738281 54.804688 18.71875 54.804688 18.707031 C 54.816406 18.65625 54.84375 18.621094 54.875 18.585938 C 54.902344 18.558594 54.917969 18.519531 54.957031 18.5 C 54.976562 18.421875 55.046875 18.378906 55.085938 18.316406 C 55.105469 18.285156 55.125 18.253906 55.148438 18.226562 C 55.160156 18.210938 55.179688 18.179688 55.203125 18.21875 C 55.203125 18.222656 55.214844 18.21875 55.222656 18.222656 C 55.21875 18.214844 55.222656 18.203125 55.21875 18.203125 C 55.179688 18.179688 55.195312 18.15625 55.21875 18.132812 C 55.265625 18.089844 55.3125 18.046875 55.355469 18 C 55.394531 17.957031 55.433594 17.910156 55.472656 17.867188 C 55.484375 17.851562 55.503906 17.839844 55.519531 17.828125 C 55.523438 17.824219 55.53125 17.820312 55.535156 17.816406 C 55.558594 17.757812 55.597656 17.710938 55.652344 17.683594 C 55.65625 17.679688 55.664062 17.671875 55.664062 17.667969 C 55.664062 17.636719 55.679688 17.621094 55.714844 17.636719 C 55.71875 17.617188 55.722656 17.601562 55.730469 17.582031 C 55.734375 17.574219 55.738281 17.566406 55.746094 17.558594 C 55.75 17.558594 55.761719 17.566406 55.761719 17.566406 C 55.761719 17.578125 55.761719 17.585938 55.757812 17.601562 C 55.769531 17.613281 55.785156 17.625 55.804688 17.644531 C 55.808594 17.613281 55.8125 17.585938 55.816406 17.558594 C 55.808594 17.558594 55.800781 17.558594 55.796875 17.554688 C 55.789062 17.550781 55.785156 17.542969 55.777344 17.539062 C 55.789062 17.535156 55.796875 17.527344 55.804688 17.53125 C 55.878906 17.550781 55.933594 17.511719 55.992188 17.480469 C 56.003906 17.472656 56.015625 17.46875 56.027344 17.464844 C 56.058594 17.449219 56.089844 17.433594 56.121094 17.425781 C 56.15625 17.414062 56.195312 17.414062 56.226562 17.390625 C 56.261719 17.367188 56.300781 17.371094 56.335938 17.355469 C 56.359375 17.347656 56.375 17.324219 56.394531 17.320312 C 56.410156 17.3125 56.4375 17.316406 56.453125 17.324219 C 56.472656 17.339844 56.496094 17.359375 56.472656 17.394531 C 56.457031 17.414062 56.449219 17.433594 56.421875 17.449219 C 56.394531 17.464844 56.378906 17.496094 56.359375 17.519531 C 56.355469 17.523438 56.355469 17.53125 56.359375 17.535156 C 56.394531 17.585938 56.347656 17.621094 56.332031 17.664062 C 56.320312 17.695312 56.308594 17.734375 56.3125 17.765625 C 56.320312 17.824219 56.261719 17.890625 56.203125 17.882812 C 56.195312 17.882812 56.1875 17.886719 56.179688 17.890625 C 56.214844 17.933594 56.214844 17.941406 56.175781 17.980469 C 56.171875 17.984375 56.164062 17.992188 56.164062 17.996094 C 56.160156 18.066406 56.09375 18.0625 56.050781 18.089844 C 56.046875 18.09375 56.039062 18.089844 56.03125 18.097656 C 56.046875 18.105469 56.0625 18.113281 56.082031 18.121094 C 56.066406 18.125 56.054688 18.125 56.050781 18.128906 C 56.046875 18.152344 56.042969 18.175781 56.039062 18.199219 C 56.011719 18.195312 55.996094 18.191406 55.976562 18.1875 C 55.976562 18.191406 55.972656 18.195312 55.972656 18.199219 C 55.984375 18.210938 55.996094 18.21875 56.011719 18.234375 C 56 18.25 55.984375 18.261719 55.972656 18.277344 C 55.949219 18.304688 55.933594 18.332031 55.914062 18.359375 C 55.890625 18.390625 55.871094 18.421875 55.820312 18.425781 C 55.777344 18.429688 55.824219 18.453125 55.8125 18.464844 C 55.792969 18.492188 55.777344 18.523438 55.757812 18.550781 C 55.742188 18.566406 55.71875 18.578125 55.699219 18.589844 C 55.691406 18.597656 55.675781 18.605469 55.679688 18.609375 C 55.6875 18.664062 55.640625 18.683594 55.613281 18.714844 C 55.609375 18.71875 55.601562 18.726562 55.597656 18.734375 C 55.574219 18.773438 55.550781 18.8125 55.527344 18.851562 C 55.515625 18.871094 55.507812 18.890625 55.496094 18.910156 C 55.449219 18.96875 55.402344 19.027344 55.351562 19.078125 C 55.308594 19.113281 55.28125 19.160156 55.25 19.199219 C 55.242188 19.210938 55.226562 19.214844 55.21875 19.222656 C 55.1875 19.257812 55.136719 19.285156 55.117188 19.320312 C 55.097656 19.355469 55.078125 19.390625 55.050781 19.421875 C 55.015625 19.46875 54.976562 19.507812 54.9375 19.550781 C 54.902344 19.589844 54.867188 19.625 54.832031 19.660156 C 54.8125 19.679688 54.789062 19.695312 54.769531 19.710938 C 54.757812 19.722656 54.746094 19.738281 54.734375 19.75 C 54.730469 19.753906 54.730469 19.761719 54.722656 19.765625 C 54.675781 19.777344 54.652344 19.816406 54.617188 19.847656 C 54.59375 19.863281 54.578125 19.886719 54.5625 19.90625 C 54.519531 19.949219 54.476562 19.988281 54.433594 20.03125 C 54.351562 20.117188 54.269531 20.203125 54.183594 20.289062 C 54.109375 20.359375 54.035156 20.433594 53.957031 20.503906 C 53.9375 20.519531 53.910156 20.53125 53.886719 20.546875 C 53.882812 20.550781 53.878906 20.558594 53.875 20.5625 C 53.867188 20.570312 53.867188 20.582031 53.859375 20.589844 C 53.820312 20.628906 53.78125 20.667969 53.738281 20.707031 C 53.730469 20.71875 53.722656 20.730469 53.710938 20.742188 C 53.6875 20.765625 53.660156 20.792969 53.636719 20.816406 C 53.632812 20.820312 53.625 20.820312 53.625 20.820312 C 53.601562 20.890625 53.539062 20.925781 53.488281 20.96875 C 53.4375 21.011719 53.371094 21.042969 53.3125 21.074219 C 53.269531 21.09375 53.242188 21.070312 53.242188 21.023438 C 53.238281 20.957031 53.222656 20.941406 53.15625 20.949219 C 53.144531 20.953125 53.128906 20.957031 53.117188 20.957031 C 53.105469 20.960938 53.09375 20.960938 53.082031 20.957031 C 53.042969 20.941406 53.011719 20.855469 53.035156 20.820312 C 53.097656 20.714844 53.164062 20.613281 53.230469 20.507812 C 53.253906 20.472656 53.277344 20.433594 53.304688 20.398438 C 53.320312 20.371094 53.34375 20.351562 53.375 20.320312 C 53.375 20.277344 53.453125 20.175781 53.496094 20.175781 C 53.5 20.160156 53.503906 20.140625 53.511719 20.128906 C 53.554688 20.082031 53.601562 20.039062 53.640625 19.988281 C 53.671875 19.957031 53.695312 19.914062 53.726562 19.882812 C 53.75 19.859375 53.777344 19.847656 53.800781 19.835938 C 53.8125 19.832031 53.820312 19.832031 53.839844 19.828125 Z M 54.839844 19.507812 C 54.800781 19.464844 54.796875 19.464844 54.761719 19.503906 C 54.753906 19.515625 54.753906 19.53125 54.746094 19.542969 C 54.742188 19.550781 54.734375 19.5625 54.726562 19.566406 C 54.695312 19.59375 54.65625 19.613281 54.628906 19.644531 C 54.605469 19.667969 54.585938 19.691406 54.554688 19.703125 C 54.511719 19.71875 54.5 19.746094 54.511719 19.785156 C 54.492188 19.792969 54.46875 19.796875 54.449219 19.808594 C 54.425781 19.828125 54.402344 19.847656 54.378906 19.871094 C 54.375 19.878906 54.382812 19.894531 54.382812 19.902344 C 54.394531 19.902344 54.40625 19.902344 54.414062 19.894531 C 54.445312 19.871094 54.472656 19.84375 54.5 19.820312 C 54.511719 19.8125 54.519531 19.796875 54.53125 19.789062 C 54.5625 19.773438 54.601562 19.765625 54.601562 19.71875 C 54.601562 19.710938 54.613281 19.703125 54.621094 19.699219 C 54.636719 19.691406 54.652344 19.683594 54.667969 19.675781 C 54.699219 19.660156 54.726562 19.640625 54.710938 19.609375 C 54.734375 19.597656 54.757812 19.585938 54.78125 19.578125 C 54.75 19.507812 54.816406 19.53125 54.839844 19.507812 Z M 54.65625 19.445312 C 54.617188 19.4375 54.519531 19.515625 54.523438 19.550781 C 54.574219 19.527344 54.621094 19.496094 54.65625 19.445312 Z M 54.324219 19.757812 C 54.335938 19.753906 54.339844 19.753906 54.34375 19.75 C 54.367188 19.726562 54.390625 19.707031 54.410156 19.6875 C 54.414062 19.683594 54.414062 19.671875 54.414062 19.667969 C 54.40625 19.664062 54.398438 19.660156 54.394531 19.664062 C 54.367188 19.683594 54.339844 19.707031 54.316406 19.730469 C 54.3125 19.730469 54.320312 19.746094 54.324219 19.757812 Z M 55.605469 17.863281 C 55.589844 17.851562 55.574219 17.832031 55.566406 17.835938 C 55.546875 17.839844 55.53125 17.855469 55.515625 17.871094 C 55.511719 17.875 55.511719 17.886719 55.515625 17.894531 C 55.515625 17.898438 55.527344 17.898438 55.535156 17.898438 C 55.550781 17.894531 55.566406 17.890625 55.582031 17.882812 C 55.589844 17.882812 55.59375 17.875 55.605469 17.863281 Z M 55.007812 18.554688 C 54.980469 18.5625 54.957031 18.5625 54.9375 18.570312 C 54.929688 18.570312 54.925781 18.578125 54.925781 18.582031 C 54.925781 18.589844 54.933594 18.597656 54.9375 18.597656 C 54.957031 18.601562 54.980469 18.605469 55.003906 18.609375 C 55.003906 18.59375 55.003906 18.582031 55.007812 18.554688 Z M 54.566406 19.011719 C 54.589844 19.007812 54.617188 19.007812 54.644531 19.003906 C 54.652344 19 54.65625 18.992188 54.65625 18.988281 C 54.65625 18.980469 54.652344 18.972656 54.644531 18.972656 C 54.605469 18.945312 54.585938 18.980469 54.566406 19.011719 Z M 54.65625 19.414062 C 54.71875 19.414062 54.726562 19.398438 54.75 19.339844 C 54.71875 19.359375 54.691406 19.371094 54.660156 19.386719 C 54.65625 19.390625 54.660156 19.402344 54.65625 19.414062 Z M 55.125 18.3125 C 55.140625 18.332031 55.152344 18.34375 55.171875 18.363281 C 55.175781 18.339844 55.179688 18.328125 55.183594 18.320312 C 55.199219 18.316406 55.210938 18.3125 55.226562 18.3125 C 55.226562 18.304688 55.222656 18.300781 55.222656 18.296875 C 55.195312 18.300781 55.167969 18.304688 55.125 18.3125 Z M 54.496094 19.589844 C 54.460938 19.570312 54.449219 19.609375 54.425781 19.617188 C 54.417969 19.621094 54.417969 19.640625 54.414062 19.648438 C 54.417969 19.648438 54.421875 19.652344 54.425781 19.652344 C 54.449219 19.632812 54.472656 19.613281 54.496094 19.589844 Z M 54.664062 18.914062 C 54.660156 18.917969 54.660156 18.925781 54.65625 18.929688 C 54.667969 18.933594 54.683594 18.9375 54.695312 18.941406 C 54.699219 18.941406 54.707031 18.929688 54.710938 18.925781 C 54.695312 18.921875 54.679688 18.917969 54.664062 18.914062 Z M 54.75 18.828125 C 54.753906 18.824219 54.757812 18.824219 54.765625 18.820312 C 54.769531 18.808594 54.777344 18.800781 54.78125 18.789062 C 54.78125 18.785156 54.765625 18.777344 54.765625 18.777344 C 54.753906 18.785156 54.746094 18.796875 54.738281 18.804688 C 54.738281 18.8125 54.746094 18.820312 54.75 18.828125 Z M 53.648438 20.707031 C 53.652344 20.691406 53.65625 20.679688 53.664062 20.660156 C 53.636719 20.671875 53.621094 20.679688 53.597656 20.695312 C 53.617188 20.699219 53.628906 20.703125 53.648438 20.707031 Z M 53.648438 20.707031 " fill-opacity="1" fill-rule="nonzero"/></g></g></g><g clip-path="url(#c2d1e7d8ae)"><g clip-path="url(#42a5537c0e)"><g clip-path="url(#c514920d8b)"><path fill="#005bff" d="M 55.058594 22.765625 C 55.105469 22.75 55.15625 22.734375 55.203125 22.714844 C 55.253906 22.695312 55.300781 22.671875 55.351562 22.652344 C 55.34375 22.636719 55.339844 22.625 55.332031 22.613281 C 55.359375 22.601562 55.378906 22.582031 55.410156 22.609375 C 55.425781 22.621094 55.496094 22.601562 55.515625 22.582031 C 55.511719 22.578125 55.507812 22.578125 55.503906 22.574219 C 55.5 22.570312 55.492188 22.5625 55.488281 22.554688 C 55.484375 22.554688 55.492188 22.542969 55.492188 22.542969 C 55.503906 22.546875 55.511719 22.546875 55.519531 22.554688 C 55.53125 22.558594 55.542969 22.578125 55.550781 22.574219 C 55.570312 22.566406 55.59375 22.558594 55.605469 22.542969 C 55.632812 22.511719 55.664062 22.484375 55.707031 22.480469 C 55.722656 22.476562 55.734375 22.472656 55.746094 22.464844 C 55.769531 22.449219 55.792969 22.429688 55.816406 22.417969 C 55.828125 22.414062 55.847656 22.429688 55.863281 22.4375 C 55.875 22.433594 55.890625 22.429688 55.902344 22.429688 C 55.941406 22.433594 55.972656 22.414062 55.980469 22.375 C 55.988281 22.351562 56.035156 22.320312 56.070312 22.324219 C 56.0625 22.335938 56.054688 22.34375 56.050781 22.355469 C 56.046875 22.359375 56.050781 22.371094 56.050781 22.378906 C 56.058594 22.375 56.074219 22.375 56.074219 22.371094 C 56.078125 22.355469 56.105469 22.347656 56.089844 22.320312 C 56.089844 22.320312 56.109375 22.296875 56.125 22.289062 C 56.1875 22.265625 56.25 22.246094 56.3125 22.222656 C 56.34375 22.210938 56.363281 22.21875 56.386719 22.246094 C 56.425781 22.242188 56.460938 22.234375 56.5 22.226562 C 56.542969 22.222656 56.550781 22.210938 56.570312 22.160156 C 56.59375 22.195312 56.625 22.1875 56.660156 22.175781 C 56.652344 22.144531 56.671875 22.140625 56.699219 22.144531 C 56.765625 22.152344 56.832031 22.136719 56.890625 22.109375 C 56.929688 22.097656 56.964844 22.085938 57 22.070312 C 57.023438 22.0625 57.042969 22.046875 57.070312 22.03125 C 57.160156 22.070312 57.238281 22.039062 57.316406 21.96875 C 57.339844 22.039062 57.382812 21.988281 57.417969 21.988281 C 57.453125 21.988281 57.488281 21.972656 57.523438 21.960938 C 57.53125 21.957031 57.53125 21.933594 57.535156 21.914062 C 57.535156 21.917969 57.546875 21.921875 57.550781 21.929688 C 57.566406 21.949219 57.574219 21.945312 57.585938 21.925781 C 57.59375 21.910156 57.609375 21.902344 57.625 21.886719 C 57.628906 21.902344 57.628906 21.914062 57.632812 21.921875 C 57.667969 21.898438 57.707031 21.878906 57.746094 21.859375 C 57.753906 21.855469 57.769531 21.855469 57.777344 21.859375 C 57.796875 21.871094 57.816406 21.863281 57.835938 21.855469 C 57.875 21.832031 57.921875 21.835938 57.964844 21.824219 C 58.011719 21.8125 58.070312 21.824219 58.105469 21.777344 C 58.113281 21.769531 58.125 21.761719 58.132812 21.761719 C 58.179688 21.761719 58.21875 21.742188 58.261719 21.722656 C 58.289062 21.710938 58.324219 21.707031 58.355469 21.703125 C 58.378906 21.695312 58.40625 21.703125 58.414062 21.667969 C 58.417969 21.65625 58.449219 21.65625 58.46875 21.648438 C 58.5 21.640625 58.53125 21.628906 58.5625 21.617188 C 58.589844 21.609375 58.621094 21.59375 58.644531 21.636719 C 58.65625 21.617188 58.667969 21.605469 58.675781 21.589844 C 58.679688 21.589844 58.679688 21.589844 58.683594 21.589844 C 58.683594 21.601562 58.679688 21.609375 58.679688 21.621094 C 58.679688 21.640625 58.664062 21.675781 58.710938 21.667969 C 58.714844 21.667969 58.726562 21.679688 58.726562 21.683594 C 58.703125 21.726562 58.742188 21.738281 58.761719 21.761719 C 58.769531 21.769531 58.773438 21.785156 58.769531 21.792969 C 58.761719 21.824219 58.753906 21.855469 58.738281 21.886719 C 58.730469 21.902344 58.710938 21.910156 58.695312 21.925781 C 58.738281 21.960938 58.753906 21.957031 58.792969 21.914062 C 58.824219 21.878906 58.851562 21.902344 58.886719 21.921875 C 58.875 21.929688 58.867188 21.9375 58.859375 21.941406 C 58.863281 21.941406 58.867188 21.945312 58.871094 21.945312 C 58.859375 21.980469 58.855469 22.011719 58.84375 22.046875 C 58.84375 22.050781 58.835938 22.0625 58.832031 22.0625 C 58.785156 22.0625 58.769531 22.113281 58.730469 22.128906 C 58.691406 22.140625 58.65625 22.167969 58.621094 22.183594 C 58.554688 22.207031 58.488281 22.226562 58.421875 22.25 C 58.371094 22.265625 58.324219 22.289062 58.273438 22.308594 C 58.222656 22.324219 58.167969 22.339844 58.113281 22.359375 C 58.101562 22.363281 58.085938 22.367188 58.074219 22.371094 C 58.042969 22.378906 58.015625 22.390625 57.984375 22.402344 C 57.929688 22.417969 57.875 22.433594 57.820312 22.449219 C 57.769531 22.460938 57.714844 22.464844 57.664062 22.476562 C 57.632812 22.484375 57.605469 22.5 57.574219 22.511719 C 57.5625 22.515625 57.546875 22.519531 57.53125 22.519531 C 57.496094 22.515625 57.460938 22.515625 57.425781 22.539062 C 57.40625 22.550781 57.378906 22.546875 57.34375 22.554688 C 57.335938 22.558594 57.320312 22.570312 57.300781 22.570312 C 57.246094 22.574219 57.199219 22.589844 57.148438 22.609375 C 57.089844 22.632812 57.023438 22.640625 56.960938 22.65625 C 56.9375 22.660156 56.914062 22.667969 56.890625 22.675781 C 56.839844 22.691406 56.789062 22.707031 56.742188 22.730469 C 56.691406 22.753906 56.640625 22.765625 56.582031 22.773438 C 56.546875 22.777344 56.515625 22.808594 56.476562 22.824219 C 56.445312 22.839844 56.410156 22.847656 56.375 22.859375 C 56.359375 22.863281 56.34375 22.867188 56.332031 22.871094 C 56.269531 22.894531 56.207031 22.921875 56.144531 22.945312 C 56.140625 22.949219 56.140625 22.949219 56.136719 22.949219 C 56.054688 22.921875 55.996094 23 55.921875 23.007812 C 55.886719 23.007812 55.851562 23.035156 55.816406 23.046875 C 55.792969 23.058594 55.765625 23.066406 55.738281 23.074219 C 55.734375 23.074219 55.730469 23.074219 55.726562 23.078125 C 55.65625 23.121094 55.570312 23.117188 55.496094 23.148438 C 55.492188 23.152344 55.484375 23.15625 55.480469 23.160156 C 55.464844 23.191406 55.433594 23.183594 55.40625 23.1875 C 55.371094 23.195312 55.332031 23.207031 55.296875 23.21875 C 55.234375 23.242188 55.171875 23.273438 55.109375 23.296875 C 55.082031 23.304688 55.058594 23.300781 55.03125 23.320312 C 55.003906 23.339844 54.960938 23.339844 54.925781 23.351562 C 54.902344 23.359375 54.878906 23.375 54.855469 23.386719 C 54.824219 23.402344 54.792969 23.417969 54.761719 23.429688 C 54.695312 23.453125 54.632812 23.472656 54.570312 23.492188 C 54.550781 23.5 54.53125 23.515625 54.515625 23.527344 C 54.445312 23.570312 54.367188 23.578125 54.289062 23.597656 C 54.273438 23.601562 54.257812 23.605469 54.238281 23.613281 C 54.230469 23.613281 54.214844 23.621094 54.210938 23.617188 C 54.160156 23.589844 54.109375 23.597656 54.054688 23.609375 C 54.019531 23.617188 53.980469 23.609375 53.945312 23.605469 C 53.941406 23.605469 53.933594 23.59375 53.933594 23.589844 C 53.9375 23.578125 53.945312 23.5625 53.953125 23.5625 C 53.980469 23.558594 53.996094 23.550781 54.007812 23.527344 C 54.011719 23.519531 54.027344 23.515625 54.035156 23.511719 C 54.050781 23.503906 54.070312 23.5 54.085938 23.492188 C 54.078125 23.480469 54.070312 23.46875 54.070312 23.464844 C 54.089844 23.429688 54.074219 23.40625 54.054688 23.378906 C 54.039062 23.355469 54.042969 23.332031 54.070312 23.308594 C 54.085938 23.296875 54.097656 23.273438 54.109375 23.253906 C 54.113281 23.246094 54.121094 23.242188 54.125 23.234375 C 54.132812 23.230469 54.140625 23.230469 54.144531 23.222656 C 54.183594 23.1875 54.21875 23.144531 54.261719 23.109375 C 54.304688 23.078125 54.355469 23.050781 54.402344 23.019531 C 54.4375 22.996094 54.476562 22.976562 54.511719 22.953125 C 54.542969 22.9375 54.574219 22.917969 54.609375 22.902344 C 54.636719 22.886719 54.667969 22.871094 54.699219 22.859375 C 54.710938 22.855469 54.726562 22.867188 54.738281 22.871094 C 54.746094 22.875 54.757812 22.882812 54.765625 22.886719 C 54.769531 22.875 54.777344 22.863281 54.777344 22.851562 C 54.773438 22.816406 54.804688 22.816406 54.824219 22.804688 C 54.835938 22.796875 54.855469 22.796875 54.871094 22.789062 C 54.894531 22.835938 54.894531 22.835938 54.941406 22.804688 C 54.96875 22.789062 55.003906 22.785156 55.03125 22.773438 C 55.039062 22.773438 55.050781 22.765625 55.058594 22.761719 Z M 55.058594 22.765625 " fill-opacity="1" fill-rule="nonzero"/></g></g></g><g clip-path="url(#88ebda9a43)"><g clip-path="url(#aecf732a9b)"><g clip-path="url(#e9d5bab90f)"><path fill="#005bff" d="M 55.960938 17.40625 C 55.953125 17.414062 55.941406 17.421875 55.929688 17.433594 C 55.941406 17.441406 55.949219 17.445312 55.957031 17.453125 C 55.957031 17.453125 55.957031 17.457031 55.953125 17.460938 C 55.925781 17.457031 55.898438 17.457031 55.871094 17.453125 L 55.871094 17.441406 C 55.898438 17.425781 55.925781 17.414062 55.953125 17.398438 C 55.957031 17.398438 55.960938 17.402344 55.960938 17.40625 Z M 55.960938 17.40625 " fill-opacity="1" fill-rule="nonzero"/></g></g></g><g clip-path="url(#4f83f50107)"><g clip-path="url(#b15296cc55)"><g clip-path="url(#69a78db11c)"><path fill="#005bff" d="M 55.183594 22.667969 C 55.199219 22.660156 55.21875 22.652344 55.234375 22.644531 C 55.238281 22.644531 55.242188 22.648438 55.242188 22.652344 C 55.238281 22.664062 55.234375 22.679688 55.222656 22.6875 C 55.214844 22.691406 55.199219 22.683594 55.183594 22.679688 C 55.183594 22.675781 55.183594 22.671875 55.183594 22.667969 Z M 55.183594 22.667969 " fill-opacity="1" fill-rule="nonzero"/><path fill="#005bff" d="M 55.058594 22.765625 C 55.046875 22.753906 55.03125 22.746094 55.011719 22.726562 C 55.03125 22.722656 55.046875 22.71875 55.066406 22.714844 C 55.0625 22.730469 55.058594 22.746094 55.058594 22.765625 Z M 55.058594 22.765625 " fill-opacity="1" fill-rule="nonzero"/></g></g></g></svg>