<svg xmlns="http://www.w3.org/2000/svg" xmlns:xlink="http://www.w3.org/1999/xlink" width="110" zoomAndPan="magnify" viewBox="0 0 82.5 74.999997" height="100" preserveAspectRatio="xMidYMid meet" version="1.0"><defs><clipPath id="81df16e536"><path d="M 0.140625 16.425781 L 82.003906 16.425781 L 82.003906 59.175781 L 0.140625 59.175781 Z M 0.140625 16.425781 " clip-rule="nonzero"/></clipPath><clipPath id="ac4c4a53d5"><path d="M 0.214844 37.832031 C 0.214844 49.636719 18.597656 59.210938 41.269531 59.210938 C 63.941406 59.210938 82.324219 49.636719 82.324219 37.832031 C 82.324219 26.023438 63.941406 16.453125 41.269531 16.453125 C 18.597656 16.453125 0.214844 26.027344 0.214844 37.832031 " clip-rule="nonzero"/></clipPath><clipPath id="d058c38880"><path d="M 0.214844 37.832031 C 0.214844 49.636719 18.597656 59.210938 41.269531 59.210938 C 63.941406 59.210938 82.324219 49.636719 82.324219 37.832031 C 82.324219 26.023438 63.941406 16.453125 41.269531 16.453125 C 18.597656 16.453125 0.214844 26.027344 0.214844 37.832031 " clip-rule="nonzero"/></clipPath><radialGradient gradientTransform="matrix(1.005085, 0, 0, 0.994915, 24.865211, 23.969338)" gradientUnits="userSpaceOnUse" r="53.637445" cx="0" id="383e5ffd44" cy="0" fx="0" fy="0"><stop stop-opacity="1" stop-color="rgb(68.199158%, 69.799805%, 83.499146%)" offset="0"/><stop stop-opacity="1" stop-color="rgb(68.199158%, 69.799805%, 83.499146%)" offset="0.25"/><stop stop-opacity="1" stop-color="rgb(68.164062%, 69.764709%, 83.473206%)" offset="0.296875"/><stop stop-opacity="1" stop-color="rgb(67.956543%, 69.555664%, 83.317566%)" offset="0.300781"/><stop stop-opacity="1" stop-color="rgb(67.608643%, 69.20929%, 83.059692%)" offset="0.304688"/><stop stop-opacity="1" stop-color="rgb(67.260742%, 68.861389%, 82.800293%)" offset="0.308594"/><stop stop-opacity="1" stop-color="rgb(66.914368%, 68.513489%, 82.542419%)" offset="0.3125"/><stop stop-opacity="1" stop-color="rgb(66.566467%, 68.167114%, 82.28302%)" offset="0.316406"/><stop stop-opacity="1" stop-color="rgb(66.220093%, 67.819214%, 82.025146%)" offset="0.320312"/><stop stop-opacity="1" stop-color="rgb(65.872192%, 67.472839%, 81.765747%)" offset="0.324219"/><stop stop-opacity="1" stop-color="rgb(65.525818%, 67.124939%, 81.506348%)" offset="0.328125"/><stop stop-opacity="1" stop-color="rgb(65.177917%, 66.778564%, 81.248474%)" offset="0.332031"/><stop stop-opacity="1" stop-color="rgb(64.831543%, 66.430664%, 80.989075%)" offset="0.335938"/><stop stop-opacity="1" stop-color="rgb(64.483643%, 66.08429%, 80.731201%)" offset="0.339844"/><stop stop-opacity="1" stop-color="rgb(64.135742%, 65.736389%, 80.471802%)" offset="0.34375"/><stop stop-opacity="1" stop-color="rgb(63.789368%, 65.388489%, 80.213928%)" offset="0.347656"/><stop stop-opacity="1" stop-color="rgb(63.441467%, 65.042114%, 79.954529%)" offset="0.351562"/><stop stop-opacity="1" stop-color="rgb(63.095093%, 64.694214%, 79.696655%)" offset="0.355469"/><stop stop-opacity="1" stop-color="rgb(62.747192%, 64.347839%, 79.437256%)" offset="0.359375"/><stop stop-opacity="1" stop-color="rgb(62.400818%, 63.999939%, 79.179382%)" offset="0.363281"/><stop stop-opacity="1" stop-color="rgb(62.052917%, 63.653564%, 78.919983%)" offset="0.367188"/><stop stop-opacity="1" stop-color="rgb(61.706543%, 63.305664%, 78.662109%)" offset="0.371094"/><stop stop-opacity="1" stop-color="rgb(61.358643%, 62.95929%, 78.40271%)" offset="0.375"/><stop stop-opacity="1" stop-color="rgb(61.010742%, 62.611389%, 78.144836%)" offset="0.378906"/><stop stop-opacity="1" stop-color="rgb(60.664368%, 62.263489%, 77.885437%)" offset="0.382812"/><stop stop-opacity="1" stop-color="rgb(60.316467%, 61.917114%, 77.627563%)" offset="0.386719"/><stop stop-opacity="1" stop-color="rgb(59.970093%, 61.569214%, 77.368164%)" offset="0.390625"/><stop stop-opacity="1" stop-color="rgb(59.622192%, 61.222839%, 77.108765%)" offset="0.394531"/><stop stop-opacity="1" stop-color="rgb(59.275818%, 60.874939%, 76.850891%)" offset="0.398438"/><stop stop-opacity="1" stop-color="rgb(58.927917%, 60.528564%, 76.591492%)" offset="0.402344"/><stop stop-opacity="1" stop-color="rgb(58.581543%, 60.180664%, 76.333618%)" offset="0.40625"/><stop stop-opacity="1" stop-color="rgb(58.233643%, 59.83429%, 76.074219%)" offset="0.410156"/><stop stop-opacity="1" stop-color="rgb(57.885742%, 59.486389%, 75.816345%)" offset="0.414062"/><stop stop-opacity="1" stop-color="rgb(57.539368%, 59.138489%, 75.556946%)" offset="0.417969"/><stop stop-opacity="1" stop-color="rgb(57.191467%, 58.792114%, 75.299072%)" offset="0.421875"/><stop stop-opacity="1" stop-color="rgb(56.845093%, 58.444214%, 75.039673%)" offset="0.425781"/><stop stop-opacity="1" stop-color="rgb(56.497192%, 58.097839%, 74.781799%)" offset="0.429688"/><stop stop-opacity="1" stop-color="rgb(56.150818%, 57.749939%, 74.5224%)" offset="0.433594"/><stop stop-opacity="1" stop-color="rgb(55.802917%, 57.403564%, 74.264526%)" offset="0.4375"/><stop stop-opacity="1" stop-color="rgb(55.456543%, 57.055664%, 74.005127%)" offset="0.441406"/><stop stop-opacity="1" stop-color="rgb(55.108643%, 56.70929%, 73.747253%)" offset="0.445312"/><stop stop-opacity="1" stop-color="rgb(54.760742%, 56.361389%, 73.487854%)" offset="0.449219"/><stop stop-opacity="1" stop-color="rgb(54.414368%, 56.013489%, 73.22998%)" offset="0.453125"/><stop stop-opacity="1" stop-color="rgb(54.066467%, 55.667114%, 72.970581%)" offset="0.457031"/><stop stop-opacity="1" stop-color="rgb(53.720093%, 55.319214%, 72.711182%)" offset="0.460938"/><stop stop-opacity="1" stop-color="rgb(53.372192%, 54.972839%, 72.453308%)" offset="0.464844"/><stop stop-opacity="1" stop-color="rgb(53.025818%, 54.624939%, 72.193909%)" offset="0.46875"/><stop stop-opacity="1" stop-color="rgb(52.677917%, 54.278564%, 71.936035%)" offset="0.472656"/><stop stop-opacity="1" stop-color="rgb(52.331543%, 53.930664%, 71.676636%)" offset="0.476562"/><stop stop-opacity="1" stop-color="rgb(51.983643%, 53.58429%, 71.418762%)" offset="0.480469"/><stop stop-opacity="1" stop-color="rgb(51.635742%, 53.236389%, 71.159363%)" offset="0.484375"/><stop stop-opacity="1" stop-color="rgb(51.289368%, 52.888489%, 70.901489%)" offset="0.488281"/><stop stop-opacity="1" stop-color="rgb(50.941467%, 52.542114%, 70.64209%)" offset="0.492188"/><stop stop-opacity="1" stop-color="rgb(50.595093%, 52.194214%, 70.384216%)" offset="0.496094"/><stop stop-opacity="1" stop-color="rgb(50.247192%, 51.847839%, 70.124817%)" offset="0.5"/><stop stop-opacity="1" stop-color="rgb(49.900818%, 51.499939%, 69.866943%)" offset="0.503906"/><stop stop-opacity="1" stop-color="rgb(49.552917%, 51.153564%, 69.607544%)" offset="0.507812"/><stop stop-opacity="1" stop-color="rgb(49.206543%, 50.805664%, 69.34967%)" offset="0.511719"/><stop stop-opacity="1" stop-color="rgb(48.858643%, 50.45929%, 69.090271%)" offset="0.515625"/><stop stop-opacity="1" stop-color="rgb(48.510742%, 50.111389%, 68.832397%)" offset="0.519531"/><stop stop-opacity="1" stop-color="rgb(48.164368%, 49.763489%, 68.572998%)" offset="0.523438"/><stop stop-opacity="1" stop-color="rgb(47.816467%, 49.417114%, 68.313599%)" offset="0.527344"/><stop stop-opacity="1" stop-color="rgb(47.470093%, 49.069214%, 68.055725%)" offset="0.53125"/><stop stop-opacity="1" stop-color="rgb(47.122192%, 48.722839%, 67.796326%)" offset="0.535156"/><stop stop-opacity="1" stop-color="rgb(46.775818%, 48.374939%, 67.538452%)" offset="0.539062"/><stop stop-opacity="1" stop-color="rgb(46.427917%, 48.028564%, 67.279053%)" offset="0.542969"/><stop stop-opacity="1" stop-color="rgb(46.081543%, 47.680664%, 67.021179%)" offset="0.546875"/><stop stop-opacity="1" stop-color="rgb(45.733643%, 47.33429%, 66.76178%)" offset="0.550781"/><stop stop-opacity="1" stop-color="rgb(45.385742%, 46.986389%, 66.503906%)" offset="0.554688"/><stop stop-opacity="1" stop-color="rgb(45.039368%, 46.638489%, 66.244507%)" offset="0.558594"/><stop stop-opacity="1" stop-color="rgb(44.691467%, 46.292114%, 65.986633%)" offset="0.5625"/><stop stop-opacity="1" stop-color="rgb(44.345093%, 45.944214%, 65.727234%)" offset="0.566406"/><stop stop-opacity="1" stop-color="rgb(43.997192%, 45.597839%, 65.46936%)" offset="0.570312"/><stop stop-opacity="1" stop-color="rgb(43.650818%, 45.249939%, 65.209961%)" offset="0.574219"/><stop stop-opacity="1" stop-color="rgb(43.302917%, 44.903564%, 64.952087%)" offset="0.578125"/><stop stop-opacity="1" stop-color="rgb(42.956543%, 44.555664%, 64.692688%)" offset="0.582031"/><stop stop-opacity="1" stop-color="rgb(42.608643%, 44.20929%, 64.434814%)" offset="0.585938"/><stop stop-opacity="1" stop-color="rgb(42.260742%, 43.861389%, 64.175415%)" offset="0.589844"/><stop stop-opacity="1" stop-color="rgb(41.914368%, 43.513489%, 63.916016%)" offset="0.59375"/><stop stop-opacity="1" stop-color="rgb(41.566467%, 43.167114%, 63.658142%)" offset="0.597656"/><stop stop-opacity="1" stop-color="rgb(41.220093%, 42.819214%, 63.398743%)" offset="0.601562"/><stop stop-opacity="1" stop-color="rgb(40.872192%, 42.472839%, 63.140869%)" offset="0.605469"/><stop stop-opacity="1" stop-color="rgb(40.525818%, 42.124939%, 62.88147%)" offset="0.609375"/><stop stop-opacity="1" stop-color="rgb(40.177917%, 41.778564%, 62.623596%)" offset="0.613281"/><stop stop-opacity="1" stop-color="rgb(39.831543%, 41.430664%, 62.364197%)" offset="0.617188"/><stop stop-opacity="1" stop-color="rgb(39.483643%, 41.08429%, 62.106323%)" offset="0.621094"/><stop stop-opacity="1" stop-color="rgb(39.135742%, 40.736389%, 61.846924%)" offset="0.625"/><stop stop-opacity="1" stop-color="rgb(38.789368%, 40.388489%, 61.58905%)" offset="0.628906"/><stop stop-opacity="1" stop-color="rgb(38.441467%, 40.042114%, 61.329651%)" offset="0.632812"/><stop stop-opacity="1" stop-color="rgb(38.095093%, 39.694214%, 61.071777%)" offset="0.636719"/><stop stop-opacity="1" stop-color="rgb(37.747192%, 39.347839%, 60.812378%)" offset="0.640625"/><stop stop-opacity="1" stop-color="rgb(37.400818%, 38.999939%, 60.554504%)" offset="0.644531"/><stop stop-opacity="1" stop-color="rgb(37.052917%, 38.653564%, 60.295105%)" offset="0.648438"/><stop stop-opacity="1" stop-color="rgb(36.706543%, 38.305664%, 60.037231%)" offset="0.652344"/><stop stop-opacity="1" stop-color="rgb(36.358643%, 37.95929%, 59.777832%)" offset="0.65625"/><stop stop-opacity="1" stop-color="rgb(36.010742%, 37.611389%, 59.518433%)" offset="0.660156"/><stop stop-opacity="1" stop-color="rgb(35.664368%, 37.263489%, 59.260559%)" offset="0.664062"/><stop stop-opacity="1" stop-color="rgb(35.316467%, 36.917114%, 59.00116%)" offset="0.667969"/><stop stop-opacity="1" stop-color="rgb(34.970093%, 36.569214%, 58.743286%)" offset="0.671875"/><stop stop-opacity="1" stop-color="rgb(34.622192%, 36.222839%, 58.483887%)" offset="0.675781"/><stop stop-opacity="1" stop-color="rgb(34.275818%, 35.874939%, 58.226013%)" offset="0.679688"/><stop stop-opacity="1" stop-color="rgb(33.927917%, 35.528564%, 57.966614%)" offset="0.683594"/><stop stop-opacity="1" stop-color="rgb(33.581543%, 35.180664%, 57.70874%)" offset="0.6875"/><stop stop-opacity="1" stop-color="rgb(33.233643%, 34.83429%, 57.449341%)" offset="0.691406"/><stop stop-opacity="1" stop-color="rgb(32.885742%, 34.486389%, 57.191467%)" offset="0.695312"/><stop stop-opacity="1" stop-color="rgb(32.539368%, 34.138489%, 56.932068%)" offset="0.699219"/><stop stop-opacity="1" stop-color="rgb(32.191467%, 33.792114%, 56.674194%)" offset="0.703125"/><stop stop-opacity="1" stop-color="rgb(31.845093%, 33.444214%, 56.414795%)" offset="0.707031"/><stop stop-opacity="1" stop-color="rgb(31.497192%, 33.097839%, 56.156921%)" offset="0.710938"/><stop stop-opacity="1" stop-color="rgb(31.150818%, 32.749939%, 55.897522%)" offset="0.714844"/><stop stop-opacity="1" stop-color="rgb(30.802917%, 32.403564%, 55.639648%)" offset="0.71875"/><stop stop-opacity="1" stop-color="rgb(30.456543%, 32.055664%, 55.380249%)" offset="0.722656"/><stop stop-opacity="1" stop-color="rgb(30.108643%, 31.70929%, 55.122375%)" offset="0.726562"/><stop stop-opacity="1" stop-color="rgb(29.760742%, 31.361389%, 54.862976%)" offset="0.730469"/><stop stop-opacity="1" stop-color="rgb(29.414368%, 31.013489%, 54.603577%)" offset="0.734375"/><stop stop-opacity="1" stop-color="rgb(29.066467%, 30.667114%, 54.345703%)" offset="0.738281"/><stop stop-opacity="1" stop-color="rgb(28.720093%, 30.319214%, 54.086304%)" offset="0.742188"/><stop stop-opacity="1" stop-color="rgb(28.372192%, 29.972839%, 53.82843%)" offset="0.746094"/><stop stop-opacity="1" stop-color="rgb(28.199768%, 29.798889%, 53.69873%)" offset="1"/></radialGradient></defs><g clip-path="url(#81df16e536)"><g clip-path="url(#ac4c4a53d5)"><g clip-path="url(#d058c38880)"><path fill="url(#383e5ffd44)" d="M 0.214844 16.453125 L 0.214844 59.175781 L 82.003906 59.175781 L 82.003906 16.453125 Z M 0.214844 16.453125 " fill-rule="nonzero"/></g></g></g><path fill="#777bb3" d="M 41.269531 57.621094 C 63.058594 57.621094 80.71875 48.761719 80.71875 37.832031 C 80.71875 26.902344 63.058594 18.042969 41.269531 18.042969 C 19.484375 18.042969 1.820312 26.902344 1.820312 37.832031 C 1.820312 48.761719 19.484375 57.621094 41.269531 57.621094 " fill-opacity="1" fill-rule="nonzero"/><path fill="#000000" d="M 22.519531 40.285156 C 24.3125 40.285156 25.648438 39.957031 26.496094 39.3125 C 27.332031 38.675781 27.910156 37.570312 28.214844 36.027344 C 28.496094 34.585938 28.390625 33.578125 27.894531 33.035156 C 27.386719 32.480469 26.292969 32.199219 24.644531 32.199219 L 21.78125 32.199219 L 20.191406 40.285156 Z M 13.15625 50.242188 C 13.023438 50.242188 12.898438 50.183594 12.8125 50.082031 C 12.722656 49.976562 12.691406 49.855469 12.71875 49.71875 L 16.925781 28.296875 C 16.945312 28.191406 16.996094 28.105469 17.082031 28.039062 C 17.164062 27.972656 17.257812 27.9375 17.363281 27.9375 L 26.429688 27.9375 C 29.277344 27.9375 31.398438 28.703125 32.730469 30.214844 C 34.070312 31.734375 34.484375 33.855469 33.960938 36.523438 C 33.75 37.609375 33.382812 38.621094 32.871094 39.523438 C 32.363281 40.429688 31.6875 41.265625 30.867188 42.011719 C 29.882812 42.921875 28.773438 43.582031 27.5625 43.96875 C 26.375 44.355469 24.851562 44.546875 23.027344 44.546875 L 19.355469 44.546875 L 18.308594 49.886719 C 18.289062 49.992188 18.238281 50.074219 18.15625 50.144531 C 18.074219 50.210938 17.976562 50.242188 17.871094 50.242188 Z M 13.15625 50.242188 " fill-opacity="1" fill-rule="nonzero"/><path fill="#ffffff" d="M 22.148438 32.640625 L 24.644531 32.640625 C 26.636719 32.640625 27.328125 33.074219 27.5625 33.332031 C 27.953125 33.761719 28.027344 34.664062 27.777344 35.945312 C 27.496094 37.375 26.972656 38.394531 26.222656 38.964844 C 25.457031 39.546875 24.210938 39.84375 22.519531 39.84375 L 20.734375 39.84375 Z M 26.429688 27.496094 L 17.363281 27.496094 C 17.148438 27.496094 16.960938 27.5625 16.796875 27.699219 C 16.632812 27.832031 16.53125 28.003906 16.488281 28.210938 L 12.28125 49.636719 C 12.257812 49.765625 12.261719 49.894531 12.292969 50.019531 C 12.328125 50.148438 12.386719 50.261719 12.46875 50.363281 C 12.554688 50.464844 12.65625 50.542969 12.777344 50.601562 C 12.898438 50.65625 13.023438 50.683594 13.15625 50.683594 L 17.871094 50.683594 C 18.085938 50.683594 18.273438 50.617188 18.4375 50.484375 C 18.601562 50.351562 18.707031 50.179688 18.746094 49.972656 L 19.726562 44.988281 L 23.027344 44.988281 C 24.898438 44.988281 26.46875 44.789062 27.703125 44.390625 C 28.972656 43.984375 30.136719 43.289062 31.171875 42.335938 C 32.023438 41.558594 32.730469 40.683594 33.261719 39.738281 C 33.792969 38.796875 34.175781 37.742188 34.398438 36.609375 C 34.953125 33.800781 34.503906 31.550781 33.066406 29.925781 C 31.648438 28.316406 29.414062 27.5 26.429688 27.5 M 19.652344 40.726562 L 22.523438 40.726562 C 24.421875 40.726562 25.839844 40.371094 26.769531 39.664062 C 27.699219 38.953125 28.328125 37.769531 28.652344 36.113281 C 28.964844 34.519531 28.824219 33.398438 28.226562 32.742188 C 27.628906 32.089844 26.433594 31.761719 24.644531 31.761719 L 21.414062 31.761719 L 19.652344 40.726562 M 26.429688 28.378906 C 29.15625 28.378906 31.148438 29.089844 32.398438 30.503906 C 33.648438 31.921875 34.023438 33.902344 33.527344 36.441406 C 33.320312 37.484375 32.972656 38.441406 32.484375 39.308594 C 31.996094 40.175781 31.355469 40.96875 30.566406 41.6875 C 29.625 42.558594 28.578125 43.179688 27.425781 43.550781 C 26.277344 43.921875 24.8125 44.109375 23.027344 44.109375 L 18.992188 44.109375 L 17.871094 49.804688 L 13.15625 49.804688 L 17.363281 28.382812 L 26.429688 28.382812 " fill-opacity="1" fill-rule="nonzero"/><path fill="#000000" d="M 44.773438 44.546875 C 44.636719 44.546875 44.511719 44.488281 44.429688 44.386719 C 44.34375 44.285156 44.308594 44.152344 44.335938 44.023438 L 46.195312 34.542969 C 46.371094 33.640625 46.328125 32.996094 46.070312 32.722656 C 45.914062 32.554688 45.445312 32.273438 44.050781 32.273438 L 40.679688 32.273438 L 38.339844 44.191406 C 38.320312 44.292969 38.269531 44.378906 38.1875 44.445312 C 38.105469 44.511719 38.011719 44.546875 37.902344 44.546875 L 33.226562 44.546875 C 33.085938 44.546875 32.972656 44.492188 32.882812 44.386719 C 32.792969 44.28125 32.761719 44.160156 32.789062 44.023438 L 36.996094 22.597656 C 37.015625 22.496094 37.066406 22.410156 37.148438 22.34375 C 37.230469 22.277344 37.328125 22.242188 37.433594 22.242188 L 42.109375 22.242188 C 42.25 22.242188 42.363281 22.296875 42.453125 22.402344 C 42.542969 22.507812 42.574219 22.632812 42.546875 22.765625 L 41.53125 27.9375 L 45.160156 27.9375 C 47.921875 27.9375 49.792969 28.421875 50.886719 29.410156 C 52 30.421875 52.34375 32.042969 51.917969 34.222656 L 49.960938 44.191406 C 49.941406 44.292969 49.890625 44.378906 49.808594 44.445312 C 49.722656 44.515625 49.628906 44.546875 49.523438 44.546875 Z M 44.773438 44.546875 " fill-opacity="1" fill-rule="nonzero"/><path fill="#ffffff" d="M 42.109375 21.800781 L 37.433594 21.800781 C 37.21875 21.800781 37.03125 21.867188 36.867188 22.003906 C 36.703125 22.136719 36.597656 22.308594 36.558594 22.515625 L 32.351562 43.9375 C 32.328125 44.066406 32.332031 44.195312 32.363281 44.324219 C 32.394531 44.449219 32.453125 44.566406 32.539062 44.667969 C 32.625 44.769531 32.726562 44.847656 32.847656 44.902344 C 32.96875 44.960938 33.09375 44.988281 33.226562 44.988281 L 37.902344 44.988281 C 38.117188 44.988281 38.304688 44.921875 38.472656 44.785156 C 38.636719 44.652344 38.738281 44.480469 38.777344 44.273438 L 41.046875 32.714844 L 44.050781 32.714844 C 45.441406 32.714844 45.734375 33.007812 45.746094 33.019531 C 45.832031 33.109375 45.941406 33.527344 45.757812 34.460938 L 43.898438 43.9375 C 43.871094 44.066406 43.875 44.195312 43.910156 44.324219 C 43.941406 44.449219 44 44.566406 44.085938 44.667969 C 44.167969 44.769531 44.273438 44.847656 44.390625 44.902344 C 44.511719 44.960938 44.640625 44.988281 44.773438 44.988281 L 49.523438 44.988281 C 49.738281 44.988281 49.925781 44.921875 50.089844 44.785156 C 50.253906 44.652344 50.359375 44.480469 50.398438 44.273438 L 52.355469 34.304688 C 52.816406 31.964844 52.421875 30.210938 51.1875 29.085938 C 50.011719 28.015625 48.039062 27.496094 45.160156 27.496094 L 42.074219 27.496094 L 42.984375 22.851562 C 43.011719 22.722656 43.007812 22.59375 42.976562 22.464844 C 42.941406 22.339844 42.882812 22.222656 42.796875 22.121094 C 42.714844 22.019531 42.613281 21.941406 42.492188 21.886719 C 42.371094 21.828125 42.242188 21.800781 42.109375 21.800781 M 42.109375 22.683594 L 40.992188 28.378906 L 45.160156 28.378906 C 47.78125 28.378906 49.589844 28.832031 50.585938 29.738281 C 51.582031 30.640625 51.878906 32.109375 51.480469 34.136719 L 49.523438 44.105469 L 44.773438 44.105469 L 46.632812 34.628906 C 46.84375 33.550781 46.765625 32.8125 46.398438 32.421875 C 46.03125 32.03125 45.25 31.832031 44.050781 31.832031 L 40.3125 31.832031 L 37.902344 44.105469 L 33.226562 44.105469 L 37.433594 22.683594 L 42.109375 22.683594 " fill-opacity="1" fill-rule="nonzero"/><path fill="#000000" d="M 59.320312 40.285156 C 61.109375 40.285156 62.449219 39.957031 63.292969 39.3125 C 64.132812 38.675781 64.710938 37.570312 65.011719 36.027344 C 65.296875 34.585938 65.1875 33.578125 64.691406 33.035156 C 64.1875 32.480469 63.09375 32.199219 61.441406 32.199219 L 58.578125 32.199219 L 56.992188 40.285156 Z M 49.953125 50.242188 C 49.820312 50.242188 49.695312 50.183594 49.613281 50.082031 C 49.523438 49.976562 49.492188 49.855469 49.519531 49.71875 L 53.722656 28.292969 C 53.746094 28.191406 53.796875 28.105469 53.878906 28.039062 C 53.960938 27.972656 54.054688 27.9375 54.160156 27.9375 L 63.226562 27.9375 C 66.078125 27.9375 68.195312 28.703125 69.53125 30.214844 C 70.871094 31.734375 71.285156 33.855469 70.761719 36.523438 C 70.546875 37.609375 70.179688 38.617188 69.671875 39.523438 C 69.160156 40.429688 68.484375 41.265625 67.664062 42.011719 C 66.679688 42.921875 65.570312 43.582031 64.363281 43.96875 C 63.171875 44.351562 61.648438 44.546875 59.824219 44.546875 L 56.152344 44.546875 L 55.105469 49.886719 C 55.085938 49.988281 55.03125 50.074219 54.949219 50.144531 C 54.867188 50.210938 54.773438 50.242188 54.667969 50.242188 Z M 49.953125 50.242188 " fill-opacity="1" fill-rule="nonzero"/><path fill="#ffffff" d="M 58.945312 32.640625 L 61.441406 32.640625 C 63.433594 32.640625 64.128906 33.074219 64.363281 33.332031 C 64.753906 33.761719 64.828125 34.664062 64.574219 35.945312 C 64.292969 37.375 63.769531 38.394531 63.023438 38.964844 C 62.257812 39.546875 61.011719 39.84375 59.320312 39.84375 L 57.53125 39.84375 Z M 63.226562 27.496094 L 54.160156 27.496094 C 53.949219 27.496094 53.757812 27.5625 53.59375 27.699219 C 53.429688 27.832031 53.328125 28.003906 53.285156 28.210938 L 49.082031 49.636719 C 49.054688 49.765625 49.058594 49.894531 49.089844 50.019531 C 49.125 50.148438 49.183594 50.261719 49.265625 50.363281 C 49.351562 50.464844 49.453125 50.542969 49.574219 50.601562 C 49.695312 50.65625 49.820312 50.683594 49.953125 50.683594 L 54.667969 50.683594 C 54.882812 50.683594 55.070312 50.617188 55.234375 50.484375 C 55.402344 50.351562 55.503906 50.179688 55.542969 49.972656 L 56.523438 44.988281 L 59.824219 44.988281 C 61.695312 44.988281 63.265625 44.789062 64.5 44.390625 C 65.769531 43.984375 66.933594 43.289062 67.96875 42.335938 C 68.824219 41.558594 69.527344 40.683594 70.058594 39.738281 C 70.589844 38.796875 70.976562 37.742188 71.199219 36.609375 C 71.75 33.800781 71.300781 31.550781 69.867188 29.925781 C 68.445312 28.316406 66.210938 27.5 63.226562 27.5 M 56.453125 40.726562 L 59.320312 40.726562 C 61.21875 40.726562 62.636719 40.371094 63.566406 39.664062 C 64.496094 38.953125 65.125 37.769531 65.449219 36.113281 C 65.761719 34.519531 65.621094 33.398438 65.023438 32.742188 C 64.425781 32.089844 63.234375 31.761719 61.441406 31.761719 L 58.210938 31.761719 L 56.453125 40.726562 M 63.226562 28.378906 C 65.953125 28.378906 67.945312 29.089844 69.195312 30.503906 C 70.445312 31.921875 70.820312 33.902344 70.324219 36.441406 C 70.117188 37.484375 69.769531 38.441406 69.28125 39.308594 C 68.792969 40.175781 68.152344 40.96875 67.363281 41.6875 C 66.421875 42.558594 65.375 43.179688 64.222656 43.550781 C 63.074219 43.921875 61.609375 44.109375 59.824219 44.109375 L 55.789062 44.109375 L 54.667969 49.804688 L 49.957031 49.804688 L 54.160156 28.378906 L 63.226562 28.378906 " fill-opacity="1" fill-rule="nonzero"/></svg>