<svg xmlns="http://www.w3.org/2000/svg" xmlns:xlink="http://www.w3.org/1999/xlink" width="110" zoomAndPan="magnify" viewBox="0 0 82.5 74.999997" height="100" preserveAspectRatio="xMidYMid meet" version="1.0"><defs><clipPath id="7986906915"><path d="M 3.269531 5 L 79.019531 5 L 79.019531 71 L 3.269531 71 Z M 3.269531 5 " clip-rule="nonzero"/></clipPath><clipPath id="5eeadf4e64"><path d="M 3.269531 2.164062 L 79.019531 2.164062 L 79.019531 73.414062 L 3.269531 73.414062 Z M 3.269531 2.164062 " clip-rule="nonzero"/></clipPath></defs><path fill="#00d8ff" d="M 47.910156 37.726562 C 47.910156 38.171875 47.867188 38.613281 47.78125 39.050781 C 47.695312 39.488281 47.566406 39.914062 47.394531 40.324219 C 47.226562 40.738281 47.015625 41.128906 46.769531 41.5 C 46.523438 41.871094 46.242188 42.214844 45.929688 42.53125 C 45.613281 42.84375 45.273438 43.128906 44.902344 43.375 C 44.535156 43.621094 44.144531 43.832031 43.734375 44.003906 C 43.324219 44.171875 42.902344 44.300781 42.464844 44.390625 C 42.03125 44.476562 41.589844 44.519531 41.144531 44.519531 C 40.703125 44.519531 40.261719 44.476562 39.824219 44.390625 C 39.390625 44.300781 38.96875 44.171875 38.558594 44.003906 C 38.148438 43.832031 37.757812 43.621094 37.386719 43.375 C 37.019531 43.128906 36.675781 42.84375 36.363281 42.53125 C 36.046875 42.214844 35.769531 41.871094 35.523438 41.5 C 35.273438 41.128906 35.066406 40.738281 34.894531 40.324219 C 34.726562 39.914062 34.597656 39.488281 34.511719 39.050781 C 34.425781 38.613281 34.382812 38.171875 34.382812 37.726562 C 34.382812 37.28125 34.425781 36.835938 34.511719 36.398438 C 34.597656 35.960938 34.726562 35.539062 34.894531 35.125 C 35.066406 34.714844 35.273438 34.320312 35.523438 33.949219 C 35.769531 33.578125 36.046875 33.238281 36.363281 32.921875 C 36.675781 32.605469 37.019531 32.324219 37.386719 32.078125 C 37.757812 31.828125 38.148438 31.621094 38.558594 31.449219 C 38.96875 31.277344 39.390625 31.148438 39.824219 31.0625 C 40.261719 30.976562 40.703125 30.929688 41.144531 30.929688 C 41.589844 30.929688 42.03125 30.976562 42.464844 31.0625 C 42.902344 31.148438 43.324219 31.277344 43.734375 31.449219 C 44.144531 31.621094 44.535156 31.828125 44.902344 32.078125 C 45.273438 32.324219 45.613281 32.605469 45.929688 32.921875 C 46.242188 33.238281 46.523438 33.578125 46.769531 33.949219 C 47.015625 34.320312 47.226562 34.714844 47.394531 35.125 C 47.566406 35.539062 47.695312 35.960938 47.78125 36.398438 C 47.867188 36.835938 47.910156 37.28125 47.910156 37.726562 Z M 47.910156 37.726562 " fill-opacity="1" fill-rule="nonzero"/><g clip-path="url(#7986906915)"><path stroke-linecap="butt" transform="matrix(0.134835, 0, 0, 0.135435, 4.803711, 5.542319)" fill="none" stroke-linejoin="miter" d="M 269.520681 135.621417 C 336.877312 135.621417 399.453796 145.283597 446.646893 161.550669 C 503.487199 181.105766 538.425735 210.755677 538.425735 237.636725 C 538.425735 265.613782 501.401316 297.138444 440.360274 317.356915 C 394.210118 332.643348 333.458782 340.632672 269.520681 340.632672 C 203.989197 340.632672 141.905214 333.133667 95.233587 317.183861 C 36.191516 296.994233 0.615627 265.09462 0.615627 237.636725 C 0.615627 210.986416 33.989751 181.567243 90.047851 162.012146 C 137.385801 145.514335 201.497726 135.621417 269.520681 135.621417 Z M 269.520681 135.621417 " stroke="#00d8ff" stroke-width="24" stroke-opacity="1" stroke-miterlimit="4"/></g><g clip-path="url(#5eeadf4e64)"><path stroke-linecap="butt" transform="matrix(0.134835, 0, 0, 0.135435, 4.803711, 5.542319)" fill="none" stroke-linejoin="miter" d="M 180.72581 186.931916 C 214.389641 128.58389 254.021413 79.205827 291.654215 46.440945 C 337.022165 6.984642 380.15938 -8.474845 403.422767 4.936837 C 427.671154 18.925365 436.478215 66.745942 423.499389 129.737583 C 413.707328 177.356263 390.270117 233.944908 358.315552 289.351016 C 325.578781 346.112714 288.061861 396.15415 250.95053 428.601767 C 203.960227 469.67324 158.534335 484.527038 134.749477 470.826933 C 111.688884 457.530621 102.852853 413.892181 113.91962 355.60184 C 123.277122 306.310304 146.772274 245.856788 180.72581 186.931916 Z M 180.72581 186.931916 " stroke="#00d8ff" stroke-width="24" stroke-opacity="1" stroke-miterlimit="4"/><path stroke-linecap="butt" transform="matrix(0.134835, 0, 0, 0.135435, 4.803711, 5.542319)" fill="none" stroke-linejoin="miter" d="M 180.812722 289.466386 C 147.09095 231.204887 124.088299 172.193487 114.499032 123.219217 C 102.968736 64.23666 111.138443 19.127262 134.37286 5.657895 C 158.592276 -8.359475 204.423756 7.907597 252.514942 50.59424 C 288.873038 82.868803 326.216134 131.43928 358.22864 186.758862 C 391.081294 243.491718 415.706299 300.974474 425.266595 349.343055 C 437.376303 410.575313 427.584242 457.328724 403.828355 471.086514 C 380.767762 484.440511 338.557607 470.307771 293.566274 431.601369 C 255.556855 398.894171 214.882141 348.333573 180.812722 289.466386 Z M 180.812722 289.466386 " stroke="#00d8ff" stroke-width="24" stroke-opacity="1" stroke-miterlimit="4"/></g></svg>